<?xml version="1.0" standalone="no"?>
<!DOCTYPE svg PUBLIC "-//W3C//DTD SVG 1.1//EN" "http://www.w3.org/Graphics/SVG/1.1/DTD/svg11.dtd" >
<svg xmlns="http://www.w3.org/2000/svg" xmlns:xlink="http://www.w3.org/1999/xlink" version="1.1">
<metadata>
Created by FontForge 20200314 at Tue Nov  4 01:16:46 2014
 By Unknown
Copyright (c) 2010 by Jonathan Hill. All rights reserved.
</metadata>
<defs>
<font id="DyeLineW00-Bold" horiz-adv-x="557" >
  <font-face 
    font-family="DyeLineW00-Bold"
    font-weight="700"
    font-stretch="normal"
    units-per-em="1000"
    panose-1="2 0 0 0 0 0 0 0 0 0"
    ascent="800"
    descent="-200"
    x-height="450"
    cap-height="700"
    bbox="50 -205 1167 913"
    underline-thickness="50"
    underline-position="-175"
    unicode-range="U+0020-FB02"
  />
<missing-glyph horiz-adv-x="300" 
 />
    <glyph glyph-name=".notdef" horiz-adv-x="300" 
 />
    <glyph glyph-name=".null" horiz-adv-x="0" 
 />
    <glyph glyph-name="nonmarkingreturn" horiz-adv-x="333" 
 />
    <glyph glyph-name="space" unicode=" " horiz-adv-x="300" 
 />
    <glyph glyph-name="exclam" unicode="!" horiz-adv-x="188" 
d="M53 122v550h81v-550h-81zM138 119v-119h-88v119h88z" />
    <glyph glyph-name="quotedbl" unicode="&#x22;" horiz-adv-x="292" 
d="M140 701v-162h-90v162h90zM242 701v-162h-89v162h89z" />
    <glyph glyph-name="numbersign" unicode="#" horiz-adv-x="554" 
d="M504 365h-135l-31 -128h166v-81h-182q-8 -37 -17 -78t-17 -77h-80l31 155h-25q-5 -27 -12 -56.5t-12 -58.5l-7 -40h-83l32 155h-82v81h99l27 128h-126v82h142q7 29 13.5 59t12.5 59l22 98h84l-48 -216h23q12 53 24.5 108t23.5 108h83l-48 -216h122v-82zM232 237h23
l27 128h-22z" />
    <glyph glyph-name="dollar" unicode="$" horiz-adv-x="538" 
d="M216 -35v38q-32 9 -61.5 31t-53 52.5t-37.5 68t-14 77.5h81q0 -52 24.5 -92t60.5 -53v243l-37 9q-24 6 -47 20.5t-41 35.5t-29 47t-11 55q0 33 13.5 62.5t36.5 52.5t53 37t62 14v42h80v-42q31 -3 59 -20t49 -44.5t33.5 -63t12.5 -75.5h-81q0 24 -5.5 45t-15 37.5t-23 27
t-29.5 13.5v-190l42 -11q69 -18 109.5 -66.5t40.5 -118.5q0 -43 -14 -79t-39.5 -61.5t-60.5 -40t-78 -15.5v-36h-80zM296 81q50 2 81 33.5t31 82.5q0 38 -25.5 66t-64.5 39q-7 2 -10.5 3.5t-11.5 3.5v-228zM132 497q0 -28 21.5 -49.5t47.5 -27.5l15 -5v169q-18 0 -33 -7.5
t-26.5 -19.5t-18 -27.5t-6.5 -32.5z" />
    <glyph glyph-name="percent" unicode="%" horiz-adv-x="841" 
d="M233 0l289 663h87l-290 -663h-86zM50 491q0 36 13.5 67.5t36.5 55t55 36.5t68 13t67.5 -13t55 -36.5t36.5 -55t13 -67.5t-13 -67.5t-36.5 -55t-55 -36.5t-67.5 -13t-68 13t-55 36.5t-36.5 55t-13.5 67.5zM132 491q0 -38 26.5 -64.5t64.5 -26.5t64.5 26.5t26.5 64.5
q0 19 -7 36t-19.5 29.5t-29 19.5t-35.5 7t-35.5 -7t-29 -19.5t-19.5 -29.5t-7 -36zM446 173q0 36 13.5 67t36.5 54.5t54.5 36.5t67.5 13t68 -13t55 -36.5t36.5 -54.5t13.5 -67t-13.5 -68t-36.5 -55t-55 -36.5t-68 -13.5t-67.5 13.5t-54.5 36.5t-36.5 55t-13.5 68zM526 173
q0 -19 7.5 -36t20 -29.5t29 -19.5t35.5 -7t35.5 7t29 19.5t19.5 29.5t7 36q0 18 -7 34.5t-19.5 29t-29 20t-35.5 7.5t-35.5 -7.5t-29 -20t-20 -29t-7.5 -34.5z" />
    <glyph glyph-name="ampersand" unicode="&#x26;" horiz-adv-x="623" 
d="M477 330v-150q0 -11 -1 -22t-3 -22q23 -35 49.5 -68t50.5 -68h-99l-46 60q-26 -25 -63.5 -42.5t-77.5 -17.5h-57q-40 0 -73 14.5t-57 39.5t-37 57.5t-13 68.5q0 47 16.5 82t41.5 61l80 65q-11 14 -22.5 30.5t-19.5 29.5q-9 16 -15.5 34t-6.5 47q0 25 11.5 49t30.5 43
t43.5 30.5t49.5 11.5q29 0 55.5 -11.5t46 -30.5t31 -43t11.5 -49q0 -39 -16.5 -68t-37.5 -49l-48 -39l96 -133v90h80zM130 180q0 -20 7 -38t20.5 -31.5t31.5 -21.5t41 -8h57q28 0 52.5 13.5t39.5 33.5q-36 51 -71 97t-71 96q-19 -14 -37 -28t-37 -30q-14 -15 -23.5 -36
t-9.5 -47zM297 474q9 11 17 25t8 30q0 20 -18.5 37t-44.5 17q-21 0 -37.5 -17t-16.5 -37q0 -14 3.5 -24.5t8.5 -18.5q2 -2 4.5 -6t0.5 -2q4 -7 7 -10.5t5.5 -7t6 -8l10.5 -13.5z" />
    <glyph glyph-name="quotesingle" unicode="'" horiz-adv-x="188" 
d="M138 701v-162h-88v162h88z" />
    <glyph glyph-name="parenleft" unicode="(" horiz-adv-x="350" 
d="M298 535q-77 -60 -122 -140t-45 -168q0 -87 45.5 -166.5t123.5 -140.5l-54 -60q-90 70 -143 165.5t-53 201.5t52.5 201t141.5 167z" />
    <glyph glyph-name="parenright" unicode=")" horiz-adv-x="350" 
d="M105 594q89 -72 142 -166.5t53 -200.5q0 -52 -14 -102.5t-40 -97.5t-62 -89.5t-81 -77.5l-53 60q78 61 123.5 140.5t45.5 166.5q0 88 -45 167.5t-122 139.5z" />
    <glyph glyph-name="asterisk" unicode="*" horiz-adv-x="450" 
d="M50 465h74l-53 53l57 56l55 -54v79h81v-79l56 56l56 -56l-55 -55h79v-81h-83q14 -15 31 -31t28 -26l-56 -57l-56 56v-79h-81v79l-54 -54l-57 56l57 56h-79v81z" />
    <glyph glyph-name="plus" unicode="+" horiz-adv-x="522" 
d="M300 511v-171h172v-81h-172v-170h-80v170h-170v81h170v171h80z" />
    <glyph glyph-name="comma" unicode="," horiz-adv-x="233" 
d="M183 22l-69 -71l-64 62l43 44v104h90v-139z" />
    <glyph glyph-name="hyphen" unicode="-" horiz-adv-x="380" 
d="M330 259h-280v81h280v-81z" />
    <glyph glyph-name="period" unicode="." horiz-adv-x="188" 
d="M138 161v-161h-88v161h88z" />
    <glyph glyph-name="slash" unicode="/" horiz-adv-x="479" 
d="M50 1l296 662h83l-294 -662h-85z" />
    <glyph glyph-name="zero" unicode="0" horiz-adv-x="592" 
d="M129 257q0 -37 13 -69t36 -56t53 -37.5t65 -13.5q34 0 64.5 13.5t53 37.5t35.5 56t13 69v149q0 37 -13 69.5t-35.5 56.5t-53 37.5t-64.5 13.5q-35 0 -65 -13.5t-53 -37.5t-36 -56.5t-13 -69.5v-149zM50 406q0 55 19.5 102t53.5 81.5t78.5 54t94.5 19.5q49 0 94 -19.5
t78.5 -54t53.5 -81.5t20 -102v-149q0 -56 -20 -103t-53.5 -81t-78.5 -53.5t-94 -19.5q-50 0 -94.5 19.5t-78.5 53.5t-53.5 81t-19.5 103v149z" />
    <glyph glyph-name="one" unicode="1" horiz-adv-x="279" 
d="M229 663v-663h-81v513l-39 -43l-59 53l127 140h52z" />
    <glyph glyph-name="two" unicode="2" horiz-adv-x="589" 
d="M536 0h-486l364 341q21 25 33 52t12 52q0 30 -10.5 55t-28 43.5t-41 29t-49.5 10.5q-30 0 -55 -13t-44 -36.5t-29.5 -55.5t-10.5 -69h-80q0 55 16 102t45.5 80.5t69.5 52.5t88 19q44 0 82 -16.5t66.5 -45.5t44.5 -69t16 -87q0 -45 -17.5 -86t-52.5 -75l-215 -203h282v-81
z" />
    <glyph glyph-name="three" unicode="3" horiz-adv-x="527" 
d="M50 446q0 44 14.5 83.5t39.5 69t57.5 47t68.5 17.5h57q41 0 75.5 -15t60 -39.5t40 -57.5t14.5 -69q0 -48 -17.5 -86.5t-53.5 -64.5q29 -26 50 -63.5t21 -76.5q0 -41 -14.5 -76t-40 -60.5t-60 -40t-75.5 -14.5h-57q-36 0 -68.5 17.5t-57.5 48.5t-39.5 72t-14.5 89h81
q0 -31 8 -57.5t21.5 -46t31.5 -31t38 -11.5h57q23 0 43 8.5t35 23.5t23.5 35t8.5 43q0 20 -8.5 38.5t-23.5 32t-35 21.5t-43 8h-92v80h98q21 0 40 9t33.5 24t22.5 35t8 43q0 20 -8.5 38.5t-23.5 32.5t-35 22t-43 8h-57q-20 0 -38 -11t-31.5 -30t-21.5 -43.5t-8 -52.5h-81z
" />
    <glyph glyph-name="four" unicode="4" horiz-adv-x="579" 
d="M459 663v-421h70v-81h-70v-161h-81v161h-328l354 502h55zM378 489l-174 -247h174v247z" />
    <glyph glyph-name="five" unicode="5" horiz-adv-x="552" 
d="M450 583h-267v-154q22 11 44 15t47 4q47 0 88.5 -18.5t72.5 -49t49 -70t18 -82.5q0 -47 -18 -88.5t-49 -72.5t-72.5 -49t-88.5 -18q-35 0 -70 16t-65.5 43t-54 63t-34.5 77h88q7 -24 21 -45.5t32 -37.5t39.5 -25.5t43.5 -9.5q30 0 57 11.5t47 31.5t31.5 47t11.5 57
q0 28 -11.5 53t-31.5 44t-47 30t-57 11q-29 0 -72 -28.5t-100 -87.5v413h348v-80z" />
    <glyph glyph-name="six" unicode="6" horiz-adv-x="548" 
d="M50 445q0 43 16 82.5t45.5 69.5t70 48t88.5 18q60 0 114 -34.5t89 -103.5l-74 -34q-24 46 -57.5 69t-71.5 23q-30 0 -55.5 -11.5t-44 -30.5t-29 -44t-10.5 -52v-47q28 22 64 36t75 14q47 0 88.5 -18.5t72.5 -49t49 -70t18 -82.5q0 -47 -18 -88.5t-49 -72.5t-72.5 -49
t-88.5 -18q-48 0 -88.5 18t-70 49t-45.5 72.5t-16 88.5v217zM131 228q0 -30 10.5 -57t29 -47t44 -31.5t55.5 -11.5t57 11.5t47 31.5t31.5 47t11.5 57q0 28 -11.5 53t-31.5 44t-47 30t-57 11t-55.5 -11t-44 -30t-29 -44t-10.5 -53z" />
    <glyph glyph-name="seven" unicode="7" horiz-adv-x="511" 
d="M142 0l207 583h-299v80h411l-233 -663h-86z" />
    <glyph glyph-name="eight" unicode="8" horiz-adv-x="527" 
d="M296 663q36 0 69 -15t57.5 -39.5t39.5 -57.5t15 -69q0 -98 -68 -151q29 -25 48.5 -62.5t19.5 -77.5q0 -41 -15 -76t-39.5 -60.5t-57.5 -40t-69 -14.5h-55q-41 0 -76 14.5t-60.5 40t-40 60.5t-14.5 76q0 42 19.5 79t51.5 62q-32 27 -51.5 65.5t-19.5 84.5q0 36 14.5 69
t40 57.5t60.5 39.5t76 15h55zM234 291q-21 0 -40 -8.5t-33 -22t-22 -32t-8 -37.5q0 -23 8.5 -43t23.5 -35t35 -23.5t43 -8.5h55q21 0 39 8.5t32 23.5t22 35t8 43q0 19 -8 37.5t-21.5 32t-30.5 22t-35 8.5h-68zM241 583q-23 0 -43 -8t-35 -22t-23.5 -32.5t-8.5 -38.5
q0 -23 8.5 -43t23.5 -35t35 -24t43 -9h55q21 0 39 9t32 24t22 35t8 43q0 20 -8 38.5t-22 32.5t-32 22t-39 8h-55z" />
    <glyph glyph-name="nine" unicode="9" horiz-adv-x="548" 
d="M498 219q0 -43 -16 -82.5t-45.5 -70t-70 -48.5t-88.5 -18q-60 0 -114 34t-90 103l74 36q24 -47 58.5 -69.5t71.5 -22.5q30 0 55 11t44 30t29.5 44t10.5 53v46q-27 -22 -63.5 -35.5t-75.5 -13.5q-47 0 -88.5 18t-72.5 48t-49 69.5t-18 82.5q0 48 18 90t49 73t72.5 48.5
t88.5 17.5q48 0 88.5 -17.5t70 -48.5t45.5 -73t16 -90v-215zM417 434q0 31 -10.5 58t-29.5 47t-44 32t-55 12t-57 -12t-47 -32t-31.5 -47t-11.5 -58q0 -28 11.5 -53t31.5 -44t47 -30t57 -11t55 11t44 30t29.5 44t10.5 53z" />
    <glyph glyph-name="colon" unicode=":" horiz-adv-x="188" 
d="M138 161v-161h-88v161h88zM138 442v-161h-88v161h88z" />
    <glyph glyph-name="semicolon" unicode=";" horiz-adv-x="233" 
d="M183 442v-161h-90v161h90zM183 22l-69 -71l-64 62l43 44v104h90v-139z" />
    <glyph glyph-name="less" unicode="&#x3c;" horiz-adv-x="601" 
d="M551 435l-305 -135q72 -36 147 -70t158 -73v-85l-501 229l501 220v-86z" />
    <glyph glyph-name="equal" unicode="=" horiz-adv-x="522" 
d="M472 352h-422v79h422v-79zM472 237h-422v81h422v-81z" />
    <glyph glyph-name="greater" unicode="&#x3e;" horiz-adv-x="601" 
d="M50 521l501 -220l-501 -229v85l306 143q-77 33 -154 68t-152 67v86z" />
    <glyph glyph-name="question" unicode="?" horiz-adv-x="508" 
d="M50 436q0 47 16 90t44 75.5t66.5 51.5t82.5 19q39 0 75 -16.5t63.5 -44t44 -63.5t16.5 -75q0 -44 -16.5 -82t-43.5 -66t-62.5 -44.5t-74.5 -16.5v-128h-81v207h79q24 0 45.5 10.5t38 28t26 41t9.5 50.5q0 24 -9.5 45t-26 37.5t-38 26t-45.5 9.5q-27 0 -50.5 -12.5
t-41 -34t-28 -49.5t-10.5 -59h-79zM266 119v-119h-90v119h90z" />
    <glyph glyph-name="at" unicode="@" horiz-adv-x="592" 
d="M542 165q0 -36 -25.5 -60t-58.5 -24q-32 0 -54.5 17.5t-27.5 46.5q-34 -20 -80 -20q-34 0 -63 12t-50.5 33.5t-33.5 50.5t-12 63q0 33 12 62t33.5 50.5t50.5 33.5t63 12q33 0 61.5 -12t50 -33.5t33.5 -50.5t12 -62v-119q0 -3 5 -3q4 0 4 3v177q0 37 -13 69t-35.5 56
t-53 38t-64.5 14q-35 0 -65 -14t-53 -38t-36 -56t-13 -69v-150q0 -37 13 -69.5t36 -56.5t53 -37.5t65 -13.5q32 0 64.5 15t60.5 43h108q-61 -64 -121 -101t-112 -37q-50 0 -94.5 19.5t-78.5 53.5t-53.5 81t-19.5 103v150q0 55 19.5 101.5t53.5 81t78.5 54t94.5 19.5
q49 0 94 -19.5t78.5 -54t53.5 -81t20 -101.5v-177zM217 284q0 -32 23.5 -55t55.5 -23t55 23t23 55q0 16 -6 30t-16.5 24.5t-25 16.5t-30.5 6t-30.5 -6t-25 -16.5t-17 -24.5t-6.5 -30z" />
    <glyph glyph-name="A" unicode="A" horiz-adv-x="625" 
d="M311 528l-74 -220h149zM339 700l236 -700h-85l-77 224h-203q-14 -42 -27 -82t-24 -72q-12 -37 -24 -70h-85l236 700h53z" />
    <glyph glyph-name="B" unicode="B" horiz-adv-x="531" 
d="M262 700q39 0 72 -15.5t57.5 -42t38 -61.5t13.5 -73q0 -40 -13 -73.5t-39 -58.5q44 -27 67 -73t23 -103q0 -42 -15.5 -78.5t-43 -63.5t-66.5 -42.5t-87 -15.5h-219v700h212zM134 328v-244h135q29 0 53 9t41 25t26.5 37t9.5 45q0 25 -9.5 48.5t-25.5 41t-37.5 28
t-46.5 10.5h-146zM134 616v-205h128q40 0 68 28t28 69q0 22 -7.5 41.5t-20.5 34.5t-30.5 23.5t-37.5 8.5h-128z" />
    <glyph glyph-name="C" unicode="C" horiz-adv-x="734" 
d="M684 137q-63 -61 -136 -99t-148 -38q-72 0 -135.5 27.5t-111 75.5t-75.5 111.5t-28 135.5t28 135.5t75.5 111.5t111 75.5t135.5 27.5q76 0 148.5 -37.5t135.5 -99.5l-59 -59q-50 50 -109 81t-116 31q-55 0 -103.5 -21t-84.5 -57t-57 -84.5t-21 -103.5t21 -103.5t57 -84.5
t84.5 -57t103.5 -21q57 0 116 31.5t109 80.5z" />
    <glyph glyph-name="D" unicode="D" horiz-adv-x="601" 
d="M134 84h67q58 0 106.5 21t84 57t55.5 84.5t20 103.5t-19.5 103.5t-54 84.5t-81 57t-99.5 21h-79v-532zM213 700q72 0 134 -27.5t107 -75.5t71 -111.5t26 -135.5t-26 -135.5t-72.5 -111.5t-111 -75.5t-140.5 -27.5h-151v700h163z" />
    <glyph glyph-name="E" unicode="E" horiz-adv-x="479" 
d="M429 0h-379v700h379v-84h-295v-224h184v-84h-184v-224h295v-84z" />
    <glyph glyph-name="F" unicode="F" horiz-adv-x="479" 
d="M50 1v698h379v-84h-295v-224h184v-84h-184v-306h-84z" />
    <glyph glyph-name="G" unicode="G" horiz-adv-x="752" 
d="M334 342h368v-342h-85v76q-45 -37 -99 -56.5t-118 -19.5q-71 0 -134.5 27.5t-111.5 75.5t-76 111.5t-28 135.5t28 135.5t76 111.5t111.5 75.5t134.5 27.5q87 0 160.5 -45t135.5 -117l-65 -56q-50 58 -109 96t-122 38q-55 0 -103.5 -21t-84.5 -57t-57 -84.5t-21 -103.5
t21 -103.5t57 -84.5t84.5 -57t103.5 -21q67 0 123 30.5t94 78.5v65h-283v84z" />
    <glyph glyph-name="H" unicode="H" horiz-adv-x="550" 
d="M416 1v312h-284v-312h-82v699h82v-304h284v304h84v-699h-84z" />
    <glyph glyph-name="I" unicode="I" horiz-adv-x="183" 
d="M50 1v699h83v-699h-83z" />
    <glyph glyph-name="J" unicode="J" horiz-adv-x="323" 
d="M123 73q18 -38 38 -38q13 0 21 8t8 19v555h-124v84h207v-639q0 -50 -31.5 -81t-80.5 -31q-34 0 -61.5 22.5t-49.5 64.5z" />
    <glyph glyph-name="K" unicode="K" horiz-adv-x="552" 
d="M50 0v700h83v-250l250 250h119l-351 -351l349 -349h-119l-248 248v-248h-83z" />
    <glyph glyph-name="L" unicode="L" horiz-adv-x="488" 
d="M438 0h-388v700h84v-616h304v-84z" />
    <glyph glyph-name="M" unicode="M" horiz-adv-x="678" 
d="M117 700l221 -477q41 86 73.5 154t59 124.5t48 104.5t41.5 94h68v-700h-82v474l-208 -450l-206 448v-472h-82v700h67z" />
    <glyph glyph-name="N" unicode="N" horiz-adv-x="537" 
d="M119 700l285 -502v502h83v-700h-68l-285 502v-502h-84v700h69z" />
    <glyph glyph-name="O" unicode="O" horiz-adv-x="800" 
d="M134 350q0 -55 21 -103.5t57 -84.5t84.5 -57t103.5 -21q57 0 106 21t84.5 57t55.5 84.5t20 103.5t-20 103.5t-55.5 84.5t-84.5 57t-106 21q-55 0 -103.5 -21t-84.5 -57t-57 -84.5t-21 -103.5zM50 350q0 72 28 135.5t76 111.5t111.5 75.5t134.5 27.5q77 0 141 -27.5
t110.5 -75.5t72.5 -111.5t26 -135.5t-26 -135.5t-72.5 -111.5t-110.5 -75.5t-141 -27.5q-71 0 -134.5 27.5t-111.5 75.5t-76 111.5t-28 135.5z" />
    <glyph glyph-name="P" unicode="P" horiz-adv-x="541" 
d="M50 0v700h242q43 0 79.5 -15.5t63 -42.5t41.5 -64t15 -79q0 -38 -15 -72.5t-41.5 -61t-63 -42t-79.5 -15.5h-158v-308h-84zM292 392q24 0 45.5 8.5t37 23t25 34t9.5 41.5q0 24 -9.5 45.5t-25 37.5t-37 25t-45.5 9h-158v-224h158z" />
    <glyph glyph-name="Q" unicode="Q" horiz-adv-x="800" 
d="M643 -62l-90 95q-68 -33 -153 -33q-71 0 -134.5 27.5t-111.5 75t-76 111.5t-28 136t28 135.5t76 111.5t111.5 75.5t134.5 27.5t134.5 -27.5t111.5 -75.5t76 -111.5t28 -135.5q0 -82 -34 -151.5t-94 -117.5l16 -17q24 -26 42 -44.5t28 -27.5zM134 350q0 -55 21 -103.5
t57 -84.5t84.5 -57t103.5 -21q47 0 89 15l-69 71l65 56l81 -85q46 37 73 91t27 118q0 55 -21 103.5t-57 84.5t-84.5 57t-103.5 21t-103.5 -21t-84.5 -57t-57 -84.5t-21 -103.5z" />
    <glyph glyph-name="R" unicode="R" horiz-adv-x="551" 
d="M501 0h-118l-249 250v-250h-84v700h242q43 0 79.5 -15.5t63 -42.5t41.5 -64t15 -79q0 -38 -15 -72.5t-41.5 -61t-63 -42t-79.5 -15.5h-99zM292 392q24 0 45.5 8.5t37 23t25 34t9.5 41.5q0 24 -9.5 45.5t-25 37.5t-37 25t-45.5 9h-158v-224h158z" />
    <glyph glyph-name="S" unicode="S" horiz-adv-x="562" 
d="M133 244q0 -32 10 -61t26.5 -50.5t38.5 -34.5t47 -13h51q54 0 88 33.5t34 87.5q0 42 -27 72.5t-69 41.5l-151 40q-23 6 -46 21t-42 37t-30.5 49.5t-11.5 58.5q0 34 14.5 65.5t38.5 56t55.5 39t66.5 14.5h70q34 0 65.5 -17t55.5 -46.5t38.5 -68t14.5 -81.5h-84
q0 26 -7 49.5t-19.5 41t-29 28t-34.5 10.5h-70q-19 0 -36 -7t-29.5 -19.5t-19.5 -29t-7 -35.5q0 -14 6.5 -27t17 -24t23.5 -19t26 -12l148 -41q34 -9 62.5 -28t49.5 -44.5t33 -57t12 -67.5q0 -45 -15.5 -82.5t-42.5 -64.5t-65 -42.5t-83 -15.5h-51q-41 0 -78 19.5t-65 53
t-45 77.5t-17 93h83z" />
    <glyph glyph-name="T" unicode="T" horiz-adv-x="542" 
d="M235 0v616h-185v84h442v-84h-174v-616h-83z" />
    <glyph glyph-name="U" unicode="U" horiz-adv-x="541" 
d="M491 700v-479q0 -47 -17 -87.5t-46.5 -70t-70 -46.5t-87.5 -17q-46 0 -86 17t-70 46.5t-47 70t-17 87.5v479h84v-479q0 -29 11 -53.5t29.5 -43.5t43 -29.5t52.5 -10.5t53.5 10.5t44.5 29.5t30 43.5t11 53.5v479h82z" />
    <glyph glyph-name="V" unicode="V" horiz-adv-x="580" 
d="M264 0l-214 700h92l151 -495q37 123 73 245t71 250h93l-206 -700h-60z" />
    <glyph glyph-name="W" unicode="W" horiz-adv-x="859" 
d="M809 700l-194 -700h-67l-126 483q-48 -182 -78.5 -301t-46.5 -182h-66l-181 700h88l125 -485q32 120 64 241.5t62 239.5h68l125 -485l136 489h91z" />
    <glyph glyph-name="X" unicode="X" horiz-adv-x="608" 
d="M50 0l204 350l-203 350h99l152 -264q39 66 78.5 132t77.5 132h99l-204 -350l205 -350h-100l-156 262q-35 -67 -73 -132t-79 -130h-100z" />
    <glyph glyph-name="Y" unicode="Y" horiz-adv-x="556" 
d="M237 0v341l-187 359h95l135 -254q17 35 40.5 79t43.5 83l48 92h94l-186 -359v-341h-83z" />
    <glyph glyph-name="Z" unicode="Z" horiz-adv-x="629" 
d="M128 700h451l-377 -616h339v-84h-491l377 616h-299v84z" />
    <glyph glyph-name="bracketleft" unicode="[" horiz-adv-x="310" 
d="M260 -103h-210v703h210v-80h-130v-542h130v-81z" />
    <glyph glyph-name="backslash" unicode="\" horiz-adv-x="479" 
d="M346 1l-296 662h85l294 -662h-83z" />
    <glyph glyph-name="bracketright" unicode="]" horiz-adv-x="310" 
d="M50 -22h130v542h-130v80h210v-703h-210v81z" />
    <glyph glyph-name="asciicircum" unicode="^" horiz-adv-x="637" 
d="M487 283l-171 245q-21 -30 -50 -72.5t-56 -81.5q-32 -46 -64 -93h-96l266 389l271 -392z" />
    <glyph glyph-name="underscore" unicode="_" horiz-adv-x="628" 
d="M578 -150h-528v81h528v-81z" />
    <glyph glyph-name="grave" unicode="`" horiz-adv-x="343" 
d="M161 599l132 -136h-110l-133 136h111z" />
    <glyph glyph-name="a" unicode="a" 
d="M426 0v48q-29 -25 -66.5 -39t-81.5 -14q-47 0 -88.5 18t-72.5 49t-49 72.5t-18 88.5q0 48 18 89.5t49 72t72.5 48t88.5 17.5q48 0 90 -17.5t73 -48t48.5 -72t17.5 -89.5v-223h-81zM131 223q0 -30 11.5 -57t31.5 -47t47 -31.5t57 -11.5q31 0 58 11.5t47 31.5t31.5 47
t11.5 57q0 31 -11.5 58t-31.5 47t-47 31.5t-58 11.5q-30 0 -57 -11.5t-47 -31.5t-31.5 -47t-11.5 -58z" />
    <glyph glyph-name="b" unicode="b" 
d="M50 0v663h81v-259q30 23 67.5 37t79.5 14q48 0 90 -17.5t73 -48t48.5 -72t17.5 -89.5q0 -47 -17.5 -88.5t-48.5 -72.5t-73 -49t-90 -18q-42 0 -80 14.5t-67 38.5v-53h-81zM131 228q0 -30 11.5 -57t31.5 -47t47 -31.5t57 -11.5q31 0 58 11.5t47 31.5t31.5 47t11.5 57
q0 31 -11.5 58t-31.5 47t-47 31.5t-58 11.5q-29 0 -55 -11t-46 -30t-32.5 -44.5t-13.5 -53.5v-9z" />
    <glyph glyph-name="c" unicode="c" horiz-adv-x="512" 
d="M462 101q-36 -50 -83.5 -75.5t-98.5 -25.5q-48 0 -90 18t-73 49t-49 72.5t-18 88.5q0 48 18 89.5t49 72t73 48t90 17.5q51 0 97.5 -24t82.5 -73l-57 -56q-29 36 -60 55t-63 19q-31 0 -58 -11.5t-47.5 -31.5t-32.5 -47t-12 -58q0 -30 12 -57t32.5 -47t47.5 -31.5t58 -11.5
t62 17.5t57 53.5z" />
    <glyph glyph-name="d" unicode="d" 
d="M426 0v53q-29 -24 -67 -38.5t-81 -14.5q-47 0 -88.5 18t-72.5 49t-49 72.5t-18 88.5q0 48 18 89.5t49 72t72.5 48t88.5 17.5q42 0 80.5 -14t67.5 -37v259h81v-663h-81zM426 237q-1 28 -13 53.5t-32.5 44.5t-46.5 30t-56 11t-57 -11.5t-47 -31.5t-31.5 -47t-11.5 -58
q0 -30 11.5 -57t31.5 -47t47 -31.5t57 -11.5t57 11.5t47.5 31.5t32 47t11.5 57v9z" />
    <glyph glyph-name="e" unicode="e" 
d="M136 188q7 -23 21 -42.5t32.5 -33.5t41.5 -22.5t47 -8.5q38 0 72.5 24.5t57.5 65.5l74 -34q-17 -31 -40 -56t-49.5 -43t-55.5 -28t-59 -10q-47 0 -88.5 18t-72.5 49t-49 72.5t-18 88.5q0 48 18 89.5t49 72t72.5 48t88.5 17.5q48 0 90 -21t73 -57.5t48.5 -85t17.5 -103.5
h-371zM417 269q-8 22 -21.5 41.5t-31.5 34t-40 23t-46 8.5q-51 0 -88.5 -30.5t-51.5 -76.5h279z" />
    <glyph glyph-name="f" unicode="f" horiz-adv-x="298" 
d="M248 583h-92q-10 0 -17.5 -7.5t-7.5 -18.5v-102h117v-79h-117v-376h-81v557q0 47 29.5 76.5t76.5 29.5h92v-80z" />
    <glyph glyph-name="g" unicode="g" 
d="M253 -14h72q34 0 58.5 16t34.5 44q-58 -46 -140 -46q-47 0 -88.5 18t-72.5 49t-49 72.5t-18 88.5q0 48 18 89.5t49 72t72.5 48t88.5 17.5q45 0 81.5 -13.5t66.5 -39.5v48h81v-363q0 -41 -13 -74t-37 -57t-57.5 -37t-74.5 -13h-72v80zM131 228q0 -30 11.5 -57t31.5 -47
t47 -31.5t57 -11.5q31 0 58 11.5t47 31.5t31.5 47t11.5 57q0 31 -11.5 58t-31.5 47t-47 31.5t-58 11.5q-30 0 -57 -11.5t-47 -31.5t-31.5 -47t-11.5 -58z" />
    <glyph glyph-name="h" unicode="h" horiz-adv-x="435" 
d="M303 0v281q0 19 -7 35.5t-19.5 28.5t-29 19t-35.5 7q-17 0 -31.5 -7t-26 -19t-18 -27.5t-6.5 -32.5v-285h-80v655h80v-228q19 11 40 17t42 6q37 0 69 -12.5t55 -34.5t36 -53.5t13 -68.5v-281h-82z" />
    <glyph glyph-name="i" unicode="i" horiz-adv-x="188" 
d="M53 0v455h81v-455h-81zM138 579v-107h-88v107h88z" />
    <glyph glyph-name="j" unicode="j" horiz-adv-x="321" 
d="M50 -16q27 0 52 7t43.5 20t29.5 31t11 41v372h81v-372q0 -41 -17.5 -74t-47 -57t-69 -37t-83.5 -13v82zM271 579v-107h-88v107h88z" />
    <glyph glyph-name="k" unicode="k" horiz-adv-x="425" 
d="M260 0l-129 129v-129h-81v663h81v-337l129 127h115l-228 -226l228 -227h-115z" />
    <glyph glyph-name="l" unicode="l" horiz-adv-x="181" 
d="M50 0v663h81v-663h-81z" />
    <glyph glyph-name="m" unicode="m" horiz-adv-x="632" 
d="M275 305q0 29 -20.5 48t-50.5 19q-32 0 -52.5 -20t-20.5 -51v-300h-81v449h81v-16q17 8 35.5 12.5t37.5 4.5q34 0 63 -11t49 -33q39 44 113 44q34 0 62 -11t48 -30.5t31.5 -47.5t11.5 -61v-300h-80v300q0 31 -20.5 51t-52.5 20q-31 0 -52 -20t-21 -51v-300h-81v304z" />
    <glyph glyph-name="n" unicode="n" horiz-adv-x="443" 
d="M130 450v-24q20 12 43 18.5t50 6.5q36 0 67.5 -12.5t54 -35t35.5 -53.5t13 -68v-281h-80v281q0 38 -26 64t-64 26q-19 0 -36 -7t-29.5 -18.5t-20 -27t-7.5 -33.5v-285h-80v449h80z" />
    <glyph glyph-name="o" unicode="o" 
d="M131 228q0 -30 11.5 -57t31.5 -47t47 -31.5t57 -11.5q31 0 58 11.5t47 31.5t31.5 47t11.5 57q0 31 -11.5 58t-31.5 47t-47 31.5t-58 11.5q-30 0 -57 -11.5t-47 -31.5t-31.5 -47t-11.5 -58zM50 228q0 48 18 89.5t49 72t72.5 48t88.5 17.5q48 0 90 -17.5t73 -48t48.5 -72
t17.5 -89.5q0 -47 -17.5 -88.5t-48.5 -72.5t-73 -49t-90 -18q-47 0 -88.5 18t-72.5 49t-49 72.5t-18 88.5z" />
    <glyph glyph-name="p" unicode="p" 
d="M131 451v-47q30 24 67.5 38t79.5 14q48 0 90 -18t73 -49t48.5 -72.5t17.5 -88.5t-17.5 -88t-48.5 -72.5t-73 -49.5t-90 -18q-42 0 -80 14.5t-67 38.5v-152h-81v550h81zM131 228q0 -30 11.5 -57t31.5 -47t47 -31.5t57 -11.5q31 0 58 11.5t47 31.5t31.5 47t11.5 57
q0 31 -11.5 58t-31.5 47t-47 31.5t-58 11.5q-29 0 -55 -11t-46 -30t-32.5 -44.5t-13.5 -53.5v-9z" />
    <glyph glyph-name="q" unicode="q" 
d="M507 451v-550h-81v152q-29 -24 -67 -38.5t-81 -14.5q-47 0 -88.5 18t-72.5 49.5t-49 72.5t-18 88t18 88.5t49 72.5t72.5 49t88.5 18q42 0 80.5 -14.5t67.5 -37.5v47h81zM426 237q-1 28 -13 53.5t-32.5 44.5t-46.5 30t-56 11t-57 -11.5t-47 -31.5t-31.5 -47t-11.5 -58
q0 -30 11.5 -57t31.5 -47t47 -31.5t57 -11.5t57 11.5t47.5 31.5t32 47t11.5 57v9z" />
    <glyph glyph-name="r" unicode="r" horiz-adv-x="373" 
d="M130 449v-14q14 7 30.5 11t32.5 4q29 0 63 -15t67 -48l-58 -57q-42 41 -72 41q-26 0 -44.5 -17.5t-18.5 -41.5v-312h-80v449h80z" />
    <glyph glyph-name="s" unicode="s" horiz-adv-x="416" 
d="M130 175q0 -19 4.5 -36t13 -30t19.5 -20.5t23 -7.5h37q25 0 42 16.5t17 41.5q0 23 -15 39t-34 20l-93 19q-17 3 -34 14t-30 27t-21 36t-8 42q0 28 10.5 50t27.5 37.5t38.5 23.5t44.5 8h46q22 0 43.5 -10t38.5 -30t27.5 -49t10.5 -66h-81q0 36 -12.5 56t-26.5 20h-46
q-15 0 -28 -10t-13 -30q0 -14 9.5 -25t19.5 -14l92 -17q23 -4 43.5 -16t36.5 -30t25 -42.5t9 -52.5t-11 -53.5t-30 -44.5t-44.5 -30t-53.5 -11h-37q-28 0 -53 14t-44.5 38t-31 55.5t-11.5 67.5h80z" />
    <glyph glyph-name="t" unicode="t" horiz-adv-x="289" 
d="M239 0h-94q-18 0 -35 10.5t-30.5 26t-21.5 34t-8 35.5v557h80v-208h109v-79h-109v-270q0 -8 5 -16.5t10 -8.5h94v-81z" />
    <glyph glyph-name="u" unicode="u" horiz-adv-x="443" 
d="M313 6v20q-41 -25 -90 -25q-38 0 -69.5 13t-54.5 36t-36 54.5t-13 68.5v278h80v-278q0 -19 7 -36t20 -29.5t29.5 -19.5t36.5 -7q19 0 35.5 7t28.5 19t19 27.5t7 33.5v283h80v-445h-80z" />
    <glyph glyph-name="v" unicode="v" horiz-adv-x="548" 
d="M256 0l-206 450h85l143 -304q8 19 17.5 41t24.5 56t37.5 83.5t55.5 123.5h85l-198 -450h-44z" />
    <glyph glyph-name="w" unicode="w" horiz-adv-x="747" 
d="M397 452l95 -285l115 285h90l-186 -452h-51l-85 260q-18 -52 -31 -91t-22.5 -69.5t-17 -54.5t-13.5 -45h-54l-187 452h90l117 -288q13 38 24.5 72t22 68t21.5 70t24 78h48z" />
    <glyph glyph-name="x" unicode="x" horiz-adv-x="509" 
d="M362 0l-107 154l-106 -154h-99l157 226l-157 226h98l106 -155q26 38 54 77.5t54 77.5h97l-156 -226l156 -226h-97z" />
    <glyph glyph-name="y" unicode="y" horiz-adv-x="493" 
d="M134 -79l73 178q-35 85 -73.5 171.5t-83.5 184.5h87l113 -252l104 252h89l-235 -564z" />
    <glyph glyph-name="z" unicode="z" horiz-adv-x="568" 
d="M470 0h-420l301 376h-226v79h393l-301 -374h253v-81z" />
    <glyph glyph-name="braceleft" unicode="{" horiz-adv-x="413" 
d="M192 252l52 -35v-251q0 -10 8 -17t19 -7h92v-81h-92q-48 0 -77.5 29t-29.5 76v210q-26 18 -57 39t-57 38l114 77v162q0 47 29.5 76.5t77.5 29.5h92v-79h-92q-11 0 -19 -8t-8 -19v-203z" />
    <glyph glyph-name="bar" unicode="|" horiz-adv-x="181" 
d="M50 -139v738h81v-738h-81z" />
    <glyph glyph-name="braceright" unicode="}" horiz-adv-x="410" 
d="M168 289v203q0 11 -7.5 19t-17.5 8h-93v79h93q46 0 75.5 -29.5t29.5 -76.5v-161q4 -3 9 -6.5t16.5 -12t31.5 -22.5t55 -37l-112 -78v-209q0 -47 -29.5 -76t-75.5 -29h-93v81h93q10 0 17.5 7t7.5 17v251l52 35z" />
    <glyph glyph-name="asciitilde" unicode="~" horiz-adv-x="607" 
d="M50 132q0 40 12 74.5t32.5 60.5t48.5 41t60 15q23 0 40 -5t30.5 -13.5t24.5 -19.5t22 -23q24 -26 42 -40.5t40 -14.5q15 0 28.5 8.5t23.5 23.5t16 34.5t6 42.5h81q0 -39 -12 -73.5t-33 -60.5t-49 -41t-61 -15q-26 0 -45.5 6.5t-35 16.5t-28 23t-24.5 27q-12 15 -28 29.5
t-38 14.5q-15 0 -28.5 -9t-23.5 -24t-16 -35t-6 -43h-79z" />
    <glyph glyph-name="uni00A0" unicode="&#xa0;" horiz-adv-x="300" 
 />
    <glyph glyph-name="exclamdown" unicode="&#xa1;" horiz-adv-x="188" 
d="M134 328v-533h-81v533h81zM50 338v119h88v-119h-88z" />
    <glyph glyph-name="cent" unicode="&#xa2;" horiz-adv-x="510" 
d="M210 -68v79q-76 19 -118 77.5t-42 139.5q0 39 11.5 74t32.5 63.5t50.5 49.5t65.5 32v79h80v-71q47 -4 92 -28t78 -69l-57 -56q-53 68 -113 74v-295q29 3 58.5 21.5t54.5 50.5l57 -54q-70 -96 -170 -99v-68h-80zM130 228q0 -45 21 -80t59 -52v263q-34 -19 -57 -54.5
t-23 -76.5z" />
    <glyph glyph-name="sterling" unicode="&#xa3;" horiz-adv-x="667" 
d="M118 371h71v111q0 36 14.5 69t40 57.5t60.5 39.5t76 15q36 0 68.5 -17.5t57.5 -47t39.5 -69t14.5 -83.5h-80q0 28 -8 52.5t-22 43.5t-32 30t-39 11q-23 0 -43 -8t-35 -22t-24 -32.5t-9 -38.5v-111h147v-80h-147v-100q0 -23 9 -43t24 -35t35 -23.5t43 -8.5h57
q20 0 38.5 11.5t32 31t21.5 46t8 57.5h81q0 -48 -15 -89t-40 -72t-57.5 -48.5t-68.5 -17.5h-57q-69 0 -119 38.5t-66 99.5q-29 -12 -45.5 -49t-16.5 -89h-82q0 42 11 78.5t29.5 66t44 49.5t54.5 28v69h-71v80z" />
    <glyph glyph-name="yen" unicode="&#xa5;" horiz-adv-x="533" 
d="M479 298h-172v-34h172v-81h-172v-183h-80v183h-170v81h170v33h-170v82h141q-103 202 -148 284h92l126 -237q17 33 38.5 74t40.5 77q22 42 45 86h91l-146 -284h142v-81z" />
    <glyph glyph-name="brokenbar" unicode="&#xa6;" horiz-adv-x="833" 
 />
    <glyph glyph-name="section" unicode="&#xa7;" horiz-adv-x="416" 
d="M51 435q0 28 10.5 50t27.5 37.5t38.5 24t44.5 8.5h46q22 0 43.5 -10.5t38.5 -30.5t27.5 -49t10.5 -66h-81q0 36 -12.5 56t-26.5 20h-46q-15 0 -28 -10t-13 -30q0 -14 9.5 -25t19.5 -14l71 -15q5 0 10.5 -1.5t10.5 -2.5q23 -5 43.5 -16.5t36.5 -29.5t25 -41t9 -51
q0 -50 -30 -86q13 -18 21.5 -40.5t8.5 -47.5q0 -28 -11 -53t-30 -44.5t-44.5 -31t-53.5 -11.5h-37q-28 0 -53 14t-44.5 38t-31 56t-11.5 68h80q0 -39 17.5 -67t42.5 -28h37q25 0 42 17.5t17 41.5q0 23 -14.5 39.5t-34.5 19.5q-12 2 -24.5 4.5t-25.5 5.5l-43 9q-17 3 -34 14
t-30 27t-21 36t-8 43q0 25 9.5 47t26.5 38q-17 17 -26.5 39t-9.5 48zM286 239q0 20 -16.5 35t-33.5 23q-5 2 -7.5 2.5l-7.5 1.5h-49q-15 0 -28 -9.5t-13 -28.5q0 -14 9.5 -25t19.5 -15q28 -5 55.5 -10.5t54.5 -14.5q16 16 16 41z" />
    <glyph glyph-name="dieresis" unicode="&#xa8;" horiz-adv-x="278" 
d="M50 544h81v-80h-81v80zM148 544h80v-80h-80v80z" />
    <glyph glyph-name="copyright" unicode="&#xa9;" horiz-adv-x="656" 
d="M50 334q0 58 22 109t59.5 88.5t88 59t108.5 21.5t109 -21.5t88.5 -59t59 -88.5t21.5 -109q0 -59 -21.5 -109.5t-59 -88t-88.5 -59t-109 -21.5t-108.5 21.5t-88 59t-59.5 88t-22 109.5zM132 334q0 -41 15.5 -77t42 -62.5t62 -42t76.5 -15.5t77 15.5t63 42t42.5 62.5
t15.5 77q0 40 -15.5 76t-42.5 63t-63 42.5t-77 15.5t-76.5 -15.5t-62 -42.5t-42 -63t-15.5 -76zM481 234q-37 -35 -75 -56t-79 -21q-36 0 -68 14.5t-56.5 38.5t-39 56t-14.5 68t14.5 68.5t39 56.5t56.5 38.5t68 14.5q41 0 79 -21.5t75 -57.5l-60 -60q-23 25 -48 40.5
t-46 15.5q-40 0 -68 -27.5t-28 -67.5q0 -20 7.5 -37t20.5 -29.5t30.5 -20t37.5 -7.5t45.5 15t48.5 38z" />
    <glyph glyph-name="ordfeminine" unicode="&#xaa;" horiz-adv-x="382" 
d="M253 319v7q-25 -11 -63 -11q-29 0 -54.5 11t-44.5 30t-30 44.5t-11 55.5t11 56t30 45t44.5 30t54.5 11q30 0 56 -11t45 -30t30 -45t11 -56v-137h-79zM131 456q0 -25 17.5 -43t41.5 -18q26 0 44.5 18t18.5 43q0 26 -18.5 44.5t-44.5 18.5q-24 0 -41.5 -18.5t-17.5 -44.5z
" />
    <glyph glyph-name="guillemotleft" unicode="&#xab;" horiz-adv-x="579" 
d="M262 0l-212 209l216 213h102l-203 -213q22 -22 57.5 -57t70.5 -69q40 -40 84 -83h-115zM415 0l-212 209l216 213h102l-204 -212q10 -11 24.5 -25.5t31.5 -31t35.5 -34.5t35.5 -35q40 -40 85 -84h-114z" />
    <glyph glyph-name="logicalnot" unicode="&#xac;" horiz-adv-x="833" 
 />
    <glyph glyph-name="registered" unicode="&#xae;" horiz-adv-x="656" 
d="M50 334q0 58 22 109t59.5 88.5t88 59t108.5 21.5t109 -21.5t88.5 -59t59 -88.5t21.5 -109q0 -59 -21.5 -109.5t-59 -88t-88.5 -59t-109 -21.5t-108.5 21.5t-88 59t-59.5 88t-22 109.5zM526 334q0 49 -22 90.5t-59 68.5q14 -17 21.5 -37.5t7.5 -44.5q0 -23 -9 -44
t-25.5 -37t-38.5 -25.5t-48 -9.5h-4l109 -109q32 27 50 65t18 83zM132 334q0 -49 21.5 -90t57.5 -68v316q-36 -27 -57.5 -68.5t-21.5 -89.5zM292 376h61q17 0 29 10.5t12 24.5q0 17 -12 29.5t-29 12.5h-61v-77zM292 239v-99q16 -3 36 -3q15 0 29 1.5t28 6.5z" />
    <glyph glyph-name="macron" unicode="&#xaf;" horiz-adv-x="833" 
 />
    <glyph glyph-name="degree" unicode="&#xb0;" horiz-adv-x="420" 
d="M194 312q-31 0 -57 11t-45.5 30t-30.5 45t-11 56t11 56.5t30.5 45.5t45.5 30t57 11h33q31 0 57 -11t45 -30t30 -45.5t11 -56.5t-11 -56t-30 -45t-45 -30t-57 -11h-33zM227 391q26 0 45 18.5t19 44.5t-19 45t-45 19h-33q-26 0 -45 -19t-19 -45t19 -44.5t45 -18.5h33z" />
    <glyph glyph-name="plusminus" unicode="&#xb1;" horiz-adv-x="833" 
 />
    <glyph glyph-name="uni00B2" unicode="&#xb2;" horiz-adv-x="429" 
d="M374 268h-324l229 217q19 16 19 41q0 24 -15 40.5t-37 16.5q-23 0 -39 -26.5t-16 -65.5h-81q0 38 10.5 69.5t28.5 54.5t43 35.5t54 12.5q28 0 52.5 -10t42.5 -28.5t28 -43.5t10 -55q0 -26 -10.5 -52.5t-31.5 -46.5l-84 -78h121v-81z" />
    <glyph glyph-name="uni00B3" unicode="&#xb3;" horiz-adv-x="368" 
d="M132 406q3 -26 12 -41.5t21 -15.5h32q17 0 28.5 12t11.5 29q0 14 -11.5 25t-28.5 11h-67v80h70q15 0 26 11.5t11 28.5q0 15 -11.5 26t-28.5 11h-32q-13 0 -22.5 -19t-11.5 -44h-81q1 29 11 55t26 45.5t36.5 31t41.5 11.5h32q26 0 48 -9.5t38 -25.5t25 -37.5t9 -44.5
q0 -46 -27 -79q15 -15 21 -34t6 -43q0 -26 -9 -48.5t-25 -39t-38 -25.5t-48 -9h-32q-21 0 -40.5 10t-35.5 28.5t-26.5 44t-12.5 55.5h82z" />
    <glyph glyph-name="acute" unicode="&#xb4;" horiz-adv-x="343" 
d="M293 600l-132 -136h-111l133 136h110z" />
    <glyph glyph-name="mu" unicode="&#xb5;" horiz-adv-x="833" 
 />
    <glyph glyph-name="mu" unicode="&#x3bc;" horiz-adv-x="833" 
 />
    <glyph glyph-name="paragraph" unicode="&#xb6;" horiz-adv-x="601" 
d="M551 598v-79h-82v-658h-82v365h-48v-365h-80v365h-18q-42 0 -77 15t-60.5 40t-39.5 57.5t-14 68.5q0 41 14 76t39.5 60.5t60.5 40t77 14.5h310zM387 307v212h-48v-212h48z" />
    <glyph glyph-name="periodcentered" unicode="&#xb7;" horiz-adv-x="188" 
d="M138 387v-160h-88v160h88z" />
    <glyph glyph-name="cedilla" unicode="&#xb8;" horiz-adv-x="316" 
d="M196 72v-31h70v-70q0 -50 -32.5 -82.5t-83.5 -32.5h-100v82h100q25 0 33 23h-67v111h80z" />
    <glyph glyph-name="uni00B9" unicode="&#xb9;" horiz-adv-x="243" 
d="M193 672v-407h-81v244l-62 55l102 108h41z" />
    <glyph glyph-name="ordmasculine" unicode="&#xba;" horiz-adv-x="382" 
d="M131 455q0 -25 17.5 -43t41.5 -18q26 0 44.5 18t18.5 43q0 26 -18.5 44.5t-44.5 18.5q-24 0 -41.5 -18.5t-17.5 -44.5zM50 455q0 30 11 56t30 45t44.5 30t54.5 11q30 0 56 -11t45 -30t30 -45t11 -56t-11 -55.5t-30 -44.5t-45 -30t-56 -11q-29 0 -54.5 11t-44.5 30
t-30 44.5t-11 55.5z" />
    <glyph glyph-name="guillemotright" unicode="&#xbb;" horiz-adv-x="579" 
d="M202 0q44 43 84 83q35 34 70 69t58 57l-203 213h102l216 -213l-212 -209h-115zM50 0q45 44 85 84l35 35t35 34.5t31.5 31l25.5 25.5l-204 212h102l216 -213l-212 -209h-114z" />
    <glyph glyph-name="onequarter" unicode="&#xbc;" horiz-adv-x="628" 
d="M542 426v-259h36v-80h-36v-87h-81v87h-193l237 339h37zM424 167h37v54zM107 1l294 662h85l-295 -662h-84zM192 663v-398h-82v245l-60 54l92 99h50z" />
    <glyph glyph-name="onehalf" unicode="&#xbd;" horiz-adv-x="665" 
d="M105 1l295 662h84l-295 -662h-84zM192 663v-398h-82v245l-60 54l92 99h50zM612 0h-325l229 216q18 20 18 43t-14.5 39t-35.5 16q-23 0 -39.5 -26t-16.5 -66h-81q0 38 10 70t28.5 54.5t43.5 35t55 12.5q28 0 52 -10t41.5 -28t27.5 -43t10 -54q0 -26 -10.5 -52.5
t-33.5 -47.5l-83 -78h124v-81z" />
    <glyph glyph-name="threequarters" unicode="&#xbe;" horiz-adv-x="672" 
d="M176 1l295 662h83l-294 -662h-84zM132 406q3 -26 12 -41.5t21 -15.5h32q17 0 28.5 12t11.5 29q0 14 -11.5 25t-28.5 11h-67v80h70q15 0 26 11.5t11 28.5q0 15 -11.5 26t-28.5 11h-32q-13 0 -22.5 -19t-11.5 -44h-81q1 29 11 55t26 45.5t36.5 31t41.5 11.5h32
q26 0 48 -9.5t38 -25.5t25 -37.5t9 -44.5q0 -46 -27 -79q15 -15 21 -34t6 -43q0 -26 -9 -48.5t-25 -39t-38 -25.5t-48 -9h-32q-21 0 -40.5 10t-35.5 28.5t-26.5 44t-12.5 55.5h82zM586 426v-259h36v-80h-36v-87h-81v87h-193l237 339h37zM468 167h37v54z" />
    <glyph glyph-name="questiondown" unicode="&#xbf;" horiz-adv-x="508" 
d="M458 99q0 -47 -16 -90t-44 -75.5t-66.5 -51.5t-82.5 -19q-39 0 -75 16.5t-63.5 44t-44 64t-16.5 75.5q0 44 16 82t43 66t62.5 44t74.5 17v118h81v-198h-78q-24 0 -46 -10t-38.5 -27.5t-26 -41t-9.5 -50.5q0 -24 9.5 -46t26 -38.5t38.5 -26.5t46 -10q27 0 50.5 13t41 34.5
t27.5 50t10 59.5h80zM242 407v119h89v-119h-89z" />
    <glyph glyph-name="Agrave" unicode="&#xc0;" horiz-adv-x="625" 
d="M311 528l-74 -220h149zM339 700l236 -700h-85l-77 224h-203q-14 -42 -27 -82t-24 -72q-12 -37 -24 -70h-85l236 700h53zM299 900l139 -143h-114l-139 143h114z" />
    <glyph glyph-name="Aacute" unicode="&#xc1;" horiz-adv-x="625" 
d="M311 528l-74 -220h149zM339 700l236 -700h-85l-77 224h-203q-14 -42 -27 -82t-24 -72q-12 -37 -24 -70h-85l236 700h53zM438 901l-139 -143h-114l139 143h114z" />
    <glyph glyph-name="Acircumflex" unicode="&#xc2;" horiz-adv-x="625" 
d="M312 527q-17 -49 -28 -82t-18.5 -56.5t-13.5 -42t-13 -38.5h147zM339 700l236 -700h-85l-77 224h-203q-14 -42 -27 -82t-24 -72q-12 -37 -24 -70h-85l236 700h53zM146 758l139 143h53l140 -143h-115l-51 52l-51 -52h-115z" />
    <glyph glyph-name="Atilde" unicode="&#xc3;" horiz-adv-x="625" 
d="M314 526l-76 -218h148zM339 700l236 -700h-85l-77 224h-203q-14 -42 -27 -82t-24 -72q-12 -37 -24 -70h-85l236 700h53zM493 909q0 -32 -9 -60t-25 -49t-37.5 -33t-45.5 -12q-34 0 -53.5 13.5t-39.5 33.5q-10 10 -19 17.5t-16 7.5q-14 0 -24 -20.5t-10 -49.5h-83
q0 31 9 59t24.5 49t37 33.5t46.5 12.5q33 0 55 -16.5t39 -34.5q8 -8 17 -15t17 -7q14 0 23.5 21t9.5 50h84z" />
    <glyph glyph-name="Adieresis" unicode="&#xc4;" horiz-adv-x="625" 
d="M311 528l-74 -220h149zM339 700l236 -700h-85l-77 224h-203q-14 -42 -27 -82t-24 -72q-12 -37 -24 -70h-85l236 700h53zM222 810h83v-84h-83v84zM322 810h84v-84h-84v84z" />
    <glyph glyph-name="Aring" unicode="&#xc5;" horiz-adv-x="625" 
d="M196 738q0 50 33 82.5t83 32.5q24 0 45.5 -8.5t37 -24t24.5 -36.5t9 -46q0 -38 -18 -66.5t-49 -40.5l129 -379q33 -96 53.5 -156.5t31.5 -95.5h-86l-77 224h-203q-14 -42 -27 -82t-24 -72q-12 -37 -24 -70h-84l212 631q-30 12 -48 41t-18 66zM311 529q-5 -14 -11 -31.5
t-15 -43t-21 -61.5t-28 -85h149zM279 738q0 -14 9.5 -23t23.5 -9t23 9t9 23q0 13 -9 22.5t-23 9.5t-23.5 -9.5t-9.5 -22.5z" />
    <glyph glyph-name="AE" unicode="&#xc6;" horiz-adv-x="702" 
d="M652 0h-378v224h-65l-75 -224h-84l233 700h369v-84h-295v-224h184v-84h-184v-224h295v-84zM272 308v99q0 -1 -0.5 -2t-0.5 -2q-8 -23 -16.5 -46t-16.5 -49h34z" />
    <glyph glyph-name="Ccedilla" unicode="&#xc7;" horiz-adv-x="734" 
d="M684 137q-51 -48 -104.5 -81.5t-107.5 -46.5v-40q0 -53 -33.5 -87t-86.5 -34h-105v84h105q13 0 22.5 7t12.5 18h-70v53q-58 14 -107 45.5t-84.5 76.5t-55.5 100.5t-20 117.5q0 72 28 135.5t75.5 111.5t111 75.5t135.5 27.5q76 0 148.5 -37.5t135.5 -99.5l-59 -59
q-50 50 -109 81t-116 31q-55 0 -103.5 -21t-84.5 -57t-57 -84.5t-21 -103.5t21 -103.5t57 -84.5t84.5 -57t103.5 -21q57 0 116 31.5t109 80.5z" />
    <glyph glyph-name="Egrave" unicode="&#xc8;" horiz-adv-x="479" 
d="M429 0h-379v700h379v-84h-295v-224h184v-84h-184v-224h295v-84zM226 901l139 -143h-115l-137 143h113z" />
    <glyph glyph-name="Eacute" unicode="&#xc9;" horiz-adv-x="479" 
d="M429 0h-379v700h379v-84h-295v-224h184v-84h-184v-224h295v-84zM365 902l-139 -143h-113l137 143h115z" />
    <glyph glyph-name="Ecircumflex" unicode="&#xca;" horiz-adv-x="479" 
d="M429 0h-379v700h379v-84h-295v-224h184v-84h-184v-224h295v-84zM72 758l139 142h54l141 -142h-116l-51 52l-51 -52h-116z" />
    <glyph glyph-name="Edieresis" unicode="&#xcb;" horiz-adv-x="479" 
d="M429 0h-379v700h379v-84h-295v-224h184v-84h-184v-224h295v-84zM148 842h83v-84h-83v84zM248 842h84v-84h-84v84z" />
    <glyph glyph-name="Igrave" unicode="&#xcc;" horiz-adv-x="354" 
d="M135 1v699h83v-699h-83zM165 900l139 -143h-115l-139 143h115z" />
    <glyph glyph-name="Iacute" unicode="&#xcd;" horiz-adv-x="354" 
d="M135 1v699h83v-699h-83zM304 901l-139 -143h-115l139 143h115z" />
    <glyph glyph-name="Icircumflex" unicode="&#xce;" horiz-adv-x="435" 
d="M175 1v699h85v-699h-85zM50 758l141 142h54l140 -142h-117l-51 52l-51 -52h-116z" />
    <glyph glyph-name="Idieresis" unicode="&#xcf;" horiz-adv-x="284" 
d="M99 1v699h84v-699h-84zM50 842h83v-84h-83v84zM150 842h84v-84h-84v84z" />
    <glyph glyph-name="Eth" unicode="&#xd0;" horiz-adv-x="646" 
d="M258 700q72 0 134 -27.5t107 -75.5t71 -111.5t26 -135.5t-26 -135.5t-72.5 -111.5t-111 -75.5t-140.5 -27.5h-151v308h-45v84h45v308h163zM345 308h-166v-224h67q58 0 107 21t84 57t55 84.5t20 103.5t-19.5 103.5t-54 84.5t-80.5 57t-100 21h-79v-224h166v-84z" />
    <glyph glyph-name="Ntilde" unicode="&#xd1;" horiz-adv-x="537" 
d="M119 700l285 -502v502h83v-700h-68l-285 502v-502h-84v700h69zM450 911q0 -32 -9 -60t-24.5 -49t-37 -33t-46.5 -12q-34 0 -55 14.5t-44 37.5q-8 8 -15.5 14t-15.5 6q-13 0 -22.5 -21t-9.5 -50h-83q0 32 9 60t24.5 49t36.5 33.5t45 12.5q35 0 58 -17t46 -40q6 -6 13 -11
t13 -5q14 0 24 21t10 50h83z" />
    <glyph glyph-name="Ograve" unicode="&#xd2;" horiz-adv-x="800" 
d="M134 350q0 -55 21 -103.5t57 -84.5t84.5 -57t103.5 -21q57 0 106 21t84.5 57t55.5 84.5t20 103.5t-20 103.5t-55.5 84.5t-84.5 57t-106 21q-55 0 -103.5 -21t-84.5 -57t-57 -84.5t-21 -103.5zM50 350q0 72 28 135.5t76 111.5t111.5 75.5t134.5 27.5q77 0 141 -27.5
t110.5 -75.5t72.5 -111.5t26 -135.5t-26 -135.5t-72.5 -111.5t-110.5 -75.5t-141 -27.5q-71 0 -134.5 27.5t-111.5 75.5t-76 111.5t-28 135.5zM388 900l139 -143h-115l-139 143h115z" />
    <glyph glyph-name="Oacute" unicode="&#xd3;" horiz-adv-x="800" 
d="M134 350q0 -55 21 -103.5t57 -84.5t84.5 -57t103.5 -21q57 0 106 21t84.5 57t55.5 84.5t20 103.5t-20 103.5t-55.5 84.5t-84.5 57t-106 21q-55 0 -103.5 -21t-84.5 -57t-57 -84.5t-21 -103.5zM50 350q0 72 28 135.5t76 111.5t111.5 75.5t134.5 27.5q77 0 141 -27.5
t110.5 -75.5t72.5 -111.5t26 -135.5t-26 -135.5t-72.5 -111.5t-110.5 -75.5t-141 -27.5q-71 0 -134.5 27.5t-111.5 75.5t-76 111.5t-28 135.5zM527 900l-139 -143h-115l139 143h115z" />
    <glyph glyph-name="Ocircumflex" unicode="&#xd4;" horiz-adv-x="800" 
d="M134 350q0 -55 21 -103.5t57 -84.5t84.5 -57t103.5 -21q57 0 106 21t84.5 57t55.5 84.5t20 103.5t-20 103.5t-55.5 84.5t-84.5 57t-106 21q-55 0 -103.5 -21t-84.5 -57t-57 -84.5t-21 -103.5zM50 350q0 72 28 135.5t76 111.5t111.5 75.5t134.5 27.5q77 0 141 -27.5
t110.5 -75.5t72.5 -111.5t26 -135.5t-26 -135.5t-72.5 -111.5t-110.5 -75.5t-141 -27.5q-71 0 -134.5 27.5t-111.5 75.5t-76 111.5t-28 135.5zM235 757l137 143h56l137 -143h-114l-52 51l-51 -51h-113z" />
    <glyph glyph-name="Otilde" unicode="&#xd5;" horiz-adv-x="800" 
d="M134 350q0 -55 21 -103.5t57 -84.5t84.5 -57t103.5 -21q57 0 106 21t84.5 57t55.5 84.5t20 103.5t-20 103.5t-55.5 84.5t-84.5 57t-106 21q-55 0 -103.5 -21t-84.5 -57t-57 -84.5t-21 -103.5zM50 350q0 72 28 135.5t76 111.5t111.5 75.5t134.5 27.5q77 0 141 -27.5
t110.5 -75.5t72.5 -111.5t26 -135.5t-26 -135.5t-72.5 -111.5t-110.5 -75.5t-141 -27.5q-71 0 -134.5 27.5t-111.5 75.5t-76 111.5t-28 135.5zM581 911q0 -32 -9 -60t-24.5 -49t-37 -33t-46.5 -12q-34 0 -54.5 14.5t-43.5 37.5q-9 8 -16.5 14t-15.5 6q-13 0 -22.5 -21
t-9.5 -50h-83q0 32 9 60t24.5 49t36.5 33.5t45 12.5q35 0 58 -17t46 -40q6 -6 13 -11t13 -5q14 0 24 21t10 50h83z" />
    <glyph glyph-name="Odieresis" unicode="&#xd6;" horiz-adv-x="800" 
d="M134 350q0 -55 21 -103.5t57 -84.5t84.5 -57t103.5 -21q57 0 106 21t84.5 57t55.5 84.5t20 103.5t-20 103.5t-55.5 84.5t-84.5 57t-106 21q-55 0 -103.5 -21t-84.5 -57t-57 -84.5t-21 -103.5zM50 350q0 72 28 135.5t76 111.5t111.5 75.5t134.5 27.5q77 0 141 -27.5
t110.5 -75.5t72.5 -111.5t26 -135.5t-26 -135.5t-72.5 -111.5t-110.5 -75.5t-141 -27.5q-71 0 -134.5 27.5t-111.5 75.5t-76 111.5t-28 135.5zM308 842h84v-84h-84v84zM409 842h82v-84h-82v84z" />
    <glyph glyph-name="multiply" unicode="&#xd7;" horiz-adv-x="453" 
d="M105 477l122 -121l120 121l56 -57l-120 -120l120 -122l-55 -57l-121 122l-123 -122l-54 57l120 121l-120 121z" />
    <glyph glyph-name="Oslash" unicode="&#xd8;" horiz-adv-x="800" 
d="M200 1l22 50q-37 24 -68.5 56.5t-54.5 71t-36 82t-13 89.5q0 72 28 135.5t76 111.5t111.5 75.5t134.5 27.5q28 0 53.5 -3.5t50.5 -11.5l8 15h86l-20 -47q40 -22 72 -54t54 -71t34 -84.5t12 -93.5q0 -72 -26 -135.5t-72.5 -111.5t-110.5 -75.5t-141 -27.5q-28 0 -52 3
t-52 13l-4 -15h-92zM666 350q0 67 -34.5 127t-88.5 97q-51 -118 -104.5 -235.5t-110.5 -247.5q29 -7 72 -7q57 0 106 21t84.5 57t55.5 84.5t20 103.5zM134 350q0 -33 9 -65t25.5 -60.5t39 -53.5t48.5 -43l39 87q12 26 27 59.5t35.5 80t48.5 108.5t65 146q-34 7 -71 7
q-55 0 -103.5 -21t-84.5 -57t-57 -84.5t-21 -103.5z" />
    <glyph glyph-name="Ugrave" unicode="&#xd9;" horiz-adv-x="541" 
d="M491 700v-479q0 -47 -17 -87.5t-46.5 -70t-70 -46.5t-87.5 -17q-46 0 -86 17t-70 46.5t-47 70t-17 87.5v479h84v-479q0 -29 11 -53.5t29.5 -43.5t43 -29.5t52.5 -10.5t53.5 10.5t44.5 29.5t30 43.5t11 53.5v479h82zM259 900l139 -143h-115l-140 143h116z" />
    <glyph glyph-name="Uacute" unicode="&#xda;" horiz-adv-x="541" 
d="M491 700v-479q0 -47 -17 -87.5t-46.5 -70t-70 -46.5t-87.5 -17q-46 0 -86 17t-70 46.5t-47 70t-17 87.5v479h84v-479q0 -29 11 -53.5t29.5 -43.5t43 -29.5t52.5 -10.5t53.5 10.5t44.5 29.5t30 43.5t11 53.5v479h82zM398 900l-139 -143h-116l140 143h115z" />
    <glyph glyph-name="Ucircumflex" unicode="&#xdb;" horiz-adv-x="541" 
d="M491 700v-479q0 -47 -17 -87.5t-46.5 -70t-70 -46.5t-87.5 -17q-46 0 -86 17t-70 46.5t-47 70t-17 87.5v479h84v-479q0 -29 11 -53.5t29.5 -43.5t43 -29.5t52.5 -10.5t53.5 10.5t44.5 29.5t30 43.5t11 53.5v479h82zM106 757l137 143h56l137 -143h-113l-53 52l-51 -52
h-113z" />
    <glyph glyph-name="Udieresis" unicode="&#xdc;" horiz-adv-x="541" 
d="M491 700v-479q0 -47 -17 -87.5t-46.5 -70t-70 -46.5t-87.5 -17q-46 0 -86 17t-70 46.5t-47 70t-17 87.5v479h84v-479q0 -29 11 -53.5t29.5 -43.5t43 -29.5t52.5 -10.5t53.5 10.5t44.5 29.5t30 43.5t11 53.5v479h82zM180 842h83v-84h-83v84zM280 842h83v-84h-83v84z" />
    <glyph glyph-name="Yacute" unicode="&#xdd;" horiz-adv-x="556" 
d="M237 0v341l-187 359h95l135 -254q17 35 40.5 79t43.5 83l48 92h94l-186 -359v-341h-83zM380 901l-139 -143h-116l140 143h115z" />
    <glyph glyph-name="Thorn" unicode="&#xde;" horiz-adv-x="833" 
 />
    <glyph glyph-name="germandbls" unicode="&#xdf;" horiz-adv-x="527" 
d="M296 81q21 0 39 8.5t32 23.5t22 35t8 43q0 19 -8 37.5t-21.5 32t-30.5 22t-35 8.5h-49v80h43q21 0 39 9t32 24t22 35t8 43q0 20 -8 38.5t-22 32.5t-32 22t-39 8h-55q-23 0 -43 -8t-35 -22t-23.5 -32.5t-8.5 -38.5v-482h-81v482q0 36 14.5 69t40 57.5t60.5 39.5t76 15h55
q36 0 69 -15t57.5 -39.5t39.5 -57.5t15 -69q0 -98 -68 -151q29 -25 48.5 -62.5t19.5 -77.5q0 -41 -15 -76t-39.5 -60.5t-57.5 -40t-69 -14.5h-141v81h141z" />
    <glyph glyph-name="agrave" unicode="&#xe0;" 
d="M267 643l133 -135h-111l-132 135h110zM426 0v48q-29 -25 -66.5 -39t-81.5 -14q-47 0 -88.5 18t-72.5 49t-49 72.5t-18 88.5q0 48 18 89.5t49 72t72.5 48t88.5 17.5q48 0 90 -17.5t73 -48t48.5 -72t17.5 -89.5v-223h-81zM131 223q0 -30 11.5 -57t31.5 -47t47 -31.5
t57 -11.5q31 0 58 11.5t47 31.5t31.5 47t11.5 57q0 31 -11.5 58t-31.5 47t-47 31.5t-58 11.5q-30 0 -57 -11.5t-47 -31.5t-31.5 -47t-11.5 -58z" />
    <glyph glyph-name="aacute" unicode="&#xe1;" 
d="M400 643l-133 -135h-110l132 135h111zM426 0v48q-29 -25 -66.5 -39t-81.5 -14q-47 0 -88.5 18t-72.5 49t-49 72.5t-18 88.5q0 48 18 89.5t49 72t72.5 48t88.5 17.5q48 0 90 -17.5t73 -48t48.5 -72t17.5 -89.5v-223h-81zM131 223q0 -30 11.5 -57t31.5 -47t47 -31.5
t57 -11.5q31 0 58 11.5t47 31.5t31.5 47t11.5 57q0 31 -11.5 58t-31.5 47t-47 31.5t-58 11.5q-30 0 -57 -11.5t-47 -31.5t-31.5 -47t-11.5 -58z" />
    <glyph glyph-name="acircumflex" unicode="&#xe2;" 
d="M119 508l133 135h52l134 -135h-112l-49 46l-46 -46h-112zM426 0v48q-29 -25 -66.5 -39t-81.5 -14q-47 0 -88.5 18t-72.5 49t-49 72.5t-18 88.5q0 48 18 89.5t49 72t72.5 48t88.5 17.5q48 0 90 -17.5t73 -48t48.5 -72t17.5 -89.5v-223h-81zM131 223q0 -30 11.5 -57
t31.5 -47t47 -31.5t57 -11.5q31 0 58 11.5t47 31.5t31.5 47t11.5 57q0 31 -11.5 58t-31.5 47t-47 31.5t-58 11.5q-30 0 -57 -11.5t-47 -31.5t-31.5 -47t-11.5 -58z" />
    <glyph glyph-name="atilde" unicode="&#xe3;" 
d="M449 654q0 -30 -8.5 -57t-23.5 -47.5t-35 -32t-44 -11.5q-16 0 -28 3.5t-23 10t-21 16t-22 20.5q-8 8 -14.5 13.5t-13.5 5.5q-13 0 -21.5 -20t-8.5 -47h-81q0 31 9 58t24.5 47t35.5 31.5t42 11.5q31 0 51.5 -14.5t37.5 -31.5q11 -11 18 -17t15 -6q13 0 22 20t9 47h80z
M426 0v48q-29 -25 -66.5 -39t-81.5 -14q-47 0 -88.5 18t-72.5 49t-49 72.5t-18 88.5q0 48 18 89.5t49 72t72.5 48t88.5 17.5q48 0 90 -17.5t73 -48t48.5 -72t17.5 -89.5v-223h-81zM131 223q0 -30 11.5 -57t31.5 -47t47 -31.5t57 -11.5q31 0 58 11.5t47 31.5t31.5 47t11.5 57
q0 31 -11.5 58t-31.5 47t-47 31.5t-58 11.5q-30 0 -57 -11.5t-47 -31.5t-31.5 -47t-11.5 -58z" />
    <glyph glyph-name="adieresis" unicode="&#xe4;" 
d="M190 589h80v-81h-80v81zM287 589h81v-81h-81v81zM426 0v48q-29 -25 -66.5 -39t-81.5 -14q-47 0 -88.5 18t-72.5 49t-49 72.5t-18 88.5q0 48 18 89.5t49 72t72.5 48t88.5 17.5q48 0 90 -17.5t73 -48t48.5 -72t17.5 -89.5v-223h-81zM131 223q0 -30 11.5 -57t31.5 -47
t47 -31.5t57 -11.5q31 0 58 11.5t47 31.5t31.5 47t11.5 57q0 31 -11.5 58t-31.5 47t-47 31.5t-58 11.5q-30 0 -57 -11.5t-47 -31.5t-31.5 -47t-11.5 -58z" />
    <glyph glyph-name="aring" unicode="&#xe5;" 
d="M170 585q0 24 8.5 44t23 34.5t34.5 23t43 8.5q49 0 80.5 -31t31.5 -79t-31.5 -80t-80.5 -32q-23 0 -43 8.5t-34.5 23.5t-23 35.5t-8.5 44.5zM251 585q0 -14 8 -22.5t20 -8.5q14 0 22.5 8.5t8.5 22.5q0 13 -8.5 21.5t-22.5 8.5q-12 0 -20 -8.5t-8 -21.5zM426 0v48
q-29 -25 -66.5 -39t-81.5 -14q-47 0 -88.5 18t-72.5 49t-49 72.5t-18 88.5q0 48 18 89.5t49 72t72.5 48t88.5 17.5q48 0 90 -17.5t73 -48t48.5 -72t17.5 -89.5v-223h-81zM131 223q0 -30 11.5 -57t31.5 -47t47 -31.5t57 -11.5q31 0 58 11.5t47 31.5t31.5 47t11.5 57
q0 31 -11.5 58t-31.5 47t-47 31.5t-58 11.5q-30 0 -57 -11.5t-47 -31.5t-31.5 -47t-11.5 -58z" />
    <glyph glyph-name="ae" unicode="&#xe6;" horiz-adv-x="932" 
d="M857 138q-17 -31 -40 -56.5t-49 -43.5t-55 -28t-59 -10q-42 0 -80 14.5t-68 38.5v-48h-81v48q-29 -23 -67 -38t-80 -15q-48 0 -89.5 18t-72.5 49t-48.5 72.5t-17.5 88.5q0 48 17.5 89.5t48.5 72t72.5 48t89.5 17.5q62 0 109.5 -24.5t78.5 -72.5q30 48 78.5 72.5
t109.5 24.5q48 0 89.5 -21t72 -57.5t48.5 -85t18 -103.5h-371q14 -46 53 -76.5t90 -30.5q38 0 72.5 25t58.5 65zM793 269q-16 45 -53.5 76t-85.5 31q-51 0 -89.5 -30.5t-52.5 -76.5h281zM131 228q0 -30 11.5 -57t31.5 -47t47 -31.5t57 -11.5q31 0 58 11.5t47 31.5t31.5 47
t11.5 57q0 31 -11.5 58t-31.5 47t-47 31.5t-58 11.5q-30 0 -57 -11.5t-47 -31.5t-31.5 -47t-11.5 -58z" />
    <glyph glyph-name="ccedilla" unicode="&#xe7;" horiz-adv-x="512" 
d="M462 101q-25 -32 -50.5 -54.5t-53.5 -33.5v-42q0 -50 -32.5 -82.5t-83.5 -32.5h-100v82h100q24 0 32 23h-66v51q-75 19 -116.5 77.5t-41.5 138.5q0 48 18 89.5t49 72t73 48t90 17.5q51 0 97.5 -24t82.5 -73l-57 -56q-29 36 -60 55t-63 19q-31 0 -58 -11.5t-47.5 -31.5
t-32.5 -47t-12 -58q0 -30 12 -57t32.5 -47t47.5 -31.5t58 -11.5t62 17.5t57 53.5z" />
    <glyph glyph-name="egrave" unicode="&#xe8;" 
d="M267 643l133 -135h-111l-132 135h110zM136 188q7 -23 21 -42.5t32.5 -33.5t41.5 -22.5t47 -8.5q38 0 72.5 24.5t57.5 65.5l74 -34q-17 -31 -40 -56t-49.5 -43t-55.5 -28t-59 -10q-47 0 -88.5 18t-72.5 49t-49 72.5t-18 88.5q0 48 18 89.5t49 72t72.5 48t88.5 17.5
q48 0 90 -21t73 -57.5t48.5 -85t17.5 -103.5h-371zM417 269q-8 22 -21.5 41.5t-31.5 34t-40 23t-46 8.5q-51 0 -88.5 -30.5t-51.5 -76.5h279z" />
    <glyph glyph-name="eacute" unicode="&#xe9;" 
d="M400 643l-133 -135h-110l132 135h111zM136 188q7 -23 21 -42.5t32.5 -33.5t41.5 -22.5t47 -8.5q38 0 72.5 24.5t57.5 65.5l74 -34q-17 -31 -40 -56t-49.5 -43t-55.5 -28t-59 -10q-47 0 -88.5 18t-72.5 49t-49 72.5t-18 88.5q0 48 18 89.5t49 72t72.5 48t88.5 17.5
q48 0 90 -21t73 -57.5t48.5 -85t17.5 -103.5h-371zM417 269q-8 22 -21.5 41.5t-31.5 34t-40 23t-46 8.5q-51 0 -88.5 -30.5t-51.5 -76.5h279z" />
    <glyph glyph-name="ecircumflex" unicode="&#xea;" 
d="M119 508l133 135h52l134 -135h-112l-49 46l-46 -46h-112zM136 188q7 -23 21 -42.5t32.5 -33.5t41.5 -22.5t47 -8.5q38 0 72.5 24.5t57.5 65.5l74 -34q-17 -31 -40 -56t-49.5 -43t-55.5 -28t-59 -10q-47 0 -88.5 18t-72.5 49t-49 72.5t-18 88.5q0 48 18 89.5t49 72
t72.5 48t88.5 17.5q48 0 90 -21t73 -57.5t48.5 -85t17.5 -103.5h-371zM417 269q-8 22 -21.5 41.5t-31.5 34t-40 23t-46 8.5q-51 0 -88.5 -30.5t-51.5 -76.5h279z" />
    <glyph glyph-name="edieresis" unicode="&#xeb;" 
d="M190 589h80v-81h-80v81zM287 589h81v-81h-81v81zM136 188q7 -23 21 -42.5t32.5 -33.5t41.5 -22.5t47 -8.5q38 0 72.5 24.5t57.5 65.5l74 -34q-17 -31 -40 -56t-49.5 -43t-55.5 -28t-59 -10q-47 0 -88.5 18t-72.5 49t-49 72.5t-18 88.5q0 48 18 89.5t49 72t72.5 48
t88.5 17.5q48 0 90 -21t73 -57.5t48.5 -85t17.5 -103.5h-371zM417 269q-8 22 -21.5 41.5t-31.5 34t-40 23t-46 8.5q-51 0 -88.5 -30.5t-51.5 -76.5h279z" />
    <glyph glyph-name="igrave" unicode="&#xec;" horiz-adv-x="343" 
d="M161 643l132 -135h-110l-133 135h111zM132 0v455h80v-455h-80z" />
    <glyph glyph-name="iacute" unicode="&#xed;" horiz-adv-x="343" 
d="M293 643l-132 -135h-111l133 135h110zM132 0v455h80v-455h-80z" />
    <glyph glyph-name="icircumflex" unicode="&#xee;" horiz-adv-x="419" 
d="M50 508l133 135h52l134 -135h-112l-48 48l-49 -48h-110zM169 0v455h80v-455h-80z" />
    <glyph glyph-name="idieresis" unicode="&#xef;" horiz-adv-x="278" 
d="M50 589h81v-81h-81v81zM148 589h80v-81h-80v81zM100 0v455h79v-455h-79z" />
    <glyph glyph-name="eth" unicode="&#xf0;" horiz-adv-x="548" 
d="M240 473l49 110h-11q-37 0 -71 -23t-58 -69l-75 34q36 69 90 103.5t114 34.5q11 0 23 -0.5t21 -2.5l23 46h87l-36 -77q47 -30 74.5 -79t27.5 -105v-217q0 -47 -16 -88.5t-45.5 -72.5t-70 -49t-88.5 -18q-47 0 -88.5 18t-72.5 49t-49 72.5t-18 88.5q0 43 18 82.5t49 70
t72.5 49t88.5 18.5q42 0 76.5 -13t62.5 -36v46q0 30 -15 59t-38 49l-4 -8q-8 -15 -18.5 -37t-18.5 -35h-83zM417 228q0 28 -10.5 53t-29.5 44t-44 30t-55 11t-57 -11t-47 -30t-31.5 -44t-11.5 -53q0 -30 11.5 -57t31.5 -47t47 -31.5t57 -11.5t55 11.5t44 31.5t29.5 47
t10.5 57z" />
    <glyph glyph-name="ntilde" unicode="&#xf1;" horiz-adv-x="443" 
d="M130 450v-24q20 12 43 18.5t50 6.5q36 0 67.5 -12.5t54 -35t35.5 -53.5t13 -68v-281h-80v281q0 38 -26 64t-64 26q-19 0 -36 -7t-29.5 -18.5t-20 -27t-7.5 -33.5v-285h-80v449h80zM393 624q0 -30 -9 -57t-24 -47.5t-35 -32t-42 -11.5q-32 0 -53.5 15t-44.5 39l-4 3
q-5 4 -11 8t-10 4q-13 0 -21.5 -20t-8.5 -47h-80q0 30 8.5 57t23.5 47t35 31.5t43 11.5q33 0 53.5 -15t36.5 -30q8 -9 16.5 -16t16.5 -7q12 0 21 19.5t9 47.5h80z" />
    <glyph glyph-name="ograve" unicode="&#xf2;" 
d="M131 228q0 -30 11.5 -57t31.5 -47t47 -31.5t57 -11.5q31 0 58 11.5t47 31.5t31.5 47t11.5 57q0 31 -11.5 58t-31.5 47t-47 31.5t-58 11.5q-30 0 -57 -11.5t-47 -31.5t-31.5 -47t-11.5 -58zM50 228q0 48 18 89.5t49 72t72.5 48t88.5 17.5q48 0 90 -17.5t73 -48t48.5 -72
t17.5 -89.5q0 -47 -17.5 -88.5t-48.5 -72.5t-73 -49t-90 -18q-47 0 -88.5 18t-72.5 49t-49 72.5t-18 88.5zM267 643l133 -135h-111l-132 135h110z" />
    <glyph glyph-name="oacute" unicode="&#xf3;" 
d="M131 228q0 -30 11.5 -57t31.5 -47t47 -31.5t57 -11.5q31 0 58 11.5t47 31.5t31.5 47t11.5 57q0 31 -11.5 58t-31.5 47t-47 31.5t-58 11.5q-30 0 -57 -11.5t-47 -31.5t-31.5 -47t-11.5 -58zM50 228q0 48 18 89.5t49 72t72.5 48t88.5 17.5q48 0 90 -17.5t73 -48t48.5 -72
t17.5 -89.5q0 -47 -17.5 -88.5t-48.5 -72.5t-73 -49t-90 -18q-47 0 -88.5 18t-72.5 49t-49 72.5t-18 88.5zM400 643l-133 -135h-110l132 135h111z" />
    <glyph glyph-name="ocircumflex" unicode="&#xf4;" 
d="M131 228q0 -30 11.5 -57t31.5 -47t47 -31.5t57 -11.5q31 0 58 11.5t47 31.5t31.5 47t11.5 57q0 31 -11.5 58t-31.5 47t-47 31.5t-58 11.5q-30 0 -57 -11.5t-47 -31.5t-31.5 -47t-11.5 -58zM50 228q0 48 18 89.5t49 72t72.5 48t88.5 17.5q48 0 90 -17.5t73 -48t48.5 -72
t17.5 -89.5q0 -47 -17.5 -88.5t-48.5 -72.5t-73 -49t-90 -18q-47 0 -88.5 18t-72.5 49t-49 72.5t-18 88.5zM119 508l133 135h52l134 -135h-112l-49 46l-46 -46h-112z" />
    <glyph glyph-name="otilde" unicode="&#xf5;" 
d="M131 228q0 -30 11.5 -57t31.5 -47t47 -31.5t57 -11.5q31 0 58 11.5t47 31.5t31.5 47t11.5 57q0 31 -11.5 58t-31.5 47t-47 31.5t-58 11.5q-30 0 -57 -11.5t-47 -31.5t-31.5 -47t-11.5 -58zM50 228q0 48 18 89.5t49 72t72.5 48t88.5 17.5q48 0 90 -17.5t73 -48t48.5 -72
t17.5 -89.5q0 -47 -17.5 -88.5t-48.5 -72.5t-73 -49t-90 -18q-47 0 -88.5 18t-72.5 49t-49 72.5t-18 88.5zM450 624q0 -30 -8.5 -57t-23.5 -47.5t-35 -32t-44 -11.5q-32 0 -51 13.5t-40 33.5q-10 10 -17 16t-14 6q-13 0 -22 -20t-9 -47h-80q0 30 9 57t24.5 47.5t35.5 32
t42 11.5q29 0 49 -13.5t40 -32.5q9 -10 17 -16.5t16 -6.5q13 0 22 20t9 47h80z" />
    <glyph glyph-name="odieresis" unicode="&#xf6;" 
d="M131 228q0 -30 11.5 -57t31.5 -47t47 -31.5t57 -11.5q31 0 58 11.5t47 31.5t31.5 47t11.5 57q0 31 -11.5 58t-31.5 47t-47 31.5t-58 11.5q-30 0 -57 -11.5t-47 -31.5t-31.5 -47t-11.5 -58zM50 228q0 48 18 89.5t49 72t72.5 48t88.5 17.5q48 0 90 -17.5t73 -48t48.5 -72
t17.5 -89.5q0 -47 -17.5 -88.5t-48.5 -72.5t-73 -49t-90 -18q-47 0 -88.5 18t-72.5 49t-49 72.5t-18 88.5zM190 589h80v-81h-80v81zM287 589h81v-81h-81v81z" />
    <glyph glyph-name="divide" unicode="&#xf7;" horiz-adv-x="522" 
d="M304 242v-137h-89v137h89zM304 495v-138h-89v138h89zM472 259h-422v81h422v-81z" />
    <glyph glyph-name="oslash" unicode="&#xf8;" 
d="M126 1l22 38q-45 32 -71.5 80.5t-26.5 108.5q0 48 18 89.5t49 72t72.5 48t88.5 17.5q14 0 27 -1t25 -3v4h91l-16 -38q45 -32 73.5 -81t28.5 -108q0 -47 -17.5 -88.5t-48.5 -72.5t-73 -49t-90 -18q-12 0 -26.5 1.5t-28.5 6.5q-2 -6 -2 -7h-95zM278 81q31 0 58 11.5
t47 31.5t31.5 47t11.5 57q0 35 -15 65.5t-40 50.5q-28 -64 -56.5 -128.5t-59.5 -133.5q6 -1 12.5 -1h10.5zM131 228q0 -34 15 -64t38 -50l116 260q-6 1 -11.5 1.5t-10.5 0.5q-30 0 -57 -11.5t-47 -31.5t-31.5 -47t-11.5 -58z" />
    <glyph glyph-name="ugrave" unicode="&#xf9;" horiz-adv-x="443" 
d="M313 6v20q-41 -25 -90 -25q-38 0 -69.5 13t-54.5 36t-36 54.5t-13 68.5v278h80v-278q0 -19 7 -36t20 -29.5t29.5 -19.5t36.5 -7q19 0 35.5 7t28.5 19t19 27.5t7 33.5v283h80v-445h-80zM210 642l133 -135h-110l-135 135h112z" />
    <glyph glyph-name="uacute" unicode="&#xfa;" horiz-adv-x="443" 
d="M313 6v20q-41 -25 -90 -25q-38 0 -69.5 13t-54.5 36t-36 54.5t-13 68.5v278h80v-278q0 -19 7 -36t20 -29.5t29.5 -19.5t36.5 -7q19 0 35.5 7t28.5 19t19 27.5t7 33.5v283h80v-445h-80zM343 643l-133 -135h-112l135 135h110z" />
    <glyph glyph-name="ucircumflex" unicode="&#xfb;" horiz-adv-x="443" 
d="M313 6v20q-41 -25 -90 -25q-38 0 -69.5 13t-54.5 36t-36 54.5t-13 68.5v278h80v-278q0 -19 7 -36t20 -29.5t29.5 -19.5t36.5 -7q19 0 35.5 7t28.5 19t19 27.5t7 33.5v283h80v-445h-80zM63 507l132 135h54l132 -135h-111l-49 46l-47 -46h-111z" />
    <glyph glyph-name="udieresis" unicode="&#xfc;" horiz-adv-x="443" 
d="M313 6v20q-41 -25 -90 -25q-38 0 -69.5 13t-54.5 36t-36 54.5t-13 68.5v278h80v-278q0 -19 7 -36t20 -29.5t29.5 -19.5t36.5 -7q19 0 35.5 7t28.5 19t19 27.5t7 33.5v283h80v-445h-80zM133 589h80v-81h-80v81zM230 589h80v-81h-80v81z" />
    <glyph glyph-name="yacute" unicode="&#xfd;" horiz-adv-x="493" 
d="M134 -79l73 178q-35 85 -73.5 171.5t-83.5 184.5h87l113 -252l104 252h89l-235 -564zM369 648l-133 -135h-111l132 135h112z" />
    <glyph glyph-name="thorn" unicode="&#xfe;" 
d="M50 -140v739h81v-195q30 23 67.5 37t79.5 14q48 0 90 -17.5t73 -48t48.5 -72t17.5 -89.5q0 -47 -17.5 -88.5t-48.5 -72.5t-73 -49t-90 -18q-42 0 -80 14.5t-67 38.5v-193h-81zM131 228q0 -30 11.5 -57t31.5 -47t47 -31.5t57 -11.5q31 0 58 11.5t47 31.5t31.5 47t11.5 57
q0 31 -11.5 58t-31.5 47t-47 31.5t-58 11.5q-29 0 -55 -11t-46 -30t-32.5 -44.5t-13.5 -53.5v-9z" />
    <glyph glyph-name="ydieresis" unicode="&#xff;" horiz-adv-x="493" 
d="M134 -79l73 178q-35 85 -73.5 171.5t-83.5 184.5h87l113 -252l104 252h89l-235 -564zM159 589h80v-81h-80v81zM256 589h80v-81h-80v81z" />
    <glyph glyph-name="dotlessi" unicode="&#x131;" horiz-adv-x="188" 
d="M53 0v449h81v-449h-81zM138 579v-107h-88v107h88z" />
    <glyph glyph-name="Lslash" unicode="&#x141;" horiz-adv-x="565" 
d="M129 0v103h-79l79 176v421h83v-254h79l-79 -180v-182h303v-84h-386z" />
    <glyph glyph-name="lslash" unicode="&#x142;" horiz-adv-x="357" 
d="M124 0v72h-74l74 170v421h81v-243l18 39h84l-102 -229v-230h-81z" />
    <glyph glyph-name="OE" unicode="&#x152;" horiz-adv-x="792" 
d="M742 0h-342q-71 0 -134.5 27.5t-111.5 75.5t-76 111.5t-28 135.5t28 135.5t76 111.5t111.5 75.5t134.5 27.5h342v-84h-295v-224h184v-84h-184v-224h295v-84zM364 613q-48 -6 -90 -29.5t-73 -58.5t-48.5 -80t-17.5 -95t17.5 -95t48.5 -80t73 -58.5t90 -29.5v526z" />
    <glyph glyph-name="oe" unicode="&#x153;" horiz-adv-x="932" 
d="M857 137q-35 -62 -89 -99.5t-114 -37.5t-109 25t-79 72q-31 -47 -79 -72t-109 -25q-48 0 -89.5 18t-72.5 49t-48.5 72.5t-17.5 88.5q0 48 17.5 89.5t48.5 72t72.5 48t89.5 17.5q62 0 109.5 -24.5t78.5 -72.5q30 48 78.5 72.5t109.5 24.5q48 0 89.5 -21t72 -57.5t48.5 -85
t18 -103.5h-371q14 -46 53 -76.5t90 -30.5q38 0 72 25t58 65zM793 269q-16 45 -53.5 76t-85.5 31q-51 0 -89.5 -30.5t-52.5 -76.5h281zM131 228q0 -30 11.5 -57t31.5 -47t47 -31.5t57 -11.5q31 0 58 11.5t47 31.5t31.5 47t11.5 57q0 31 -11.5 58t-31.5 47t-47 31.5t-58 11.5
q-30 0 -57 -11.5t-47 -31.5t-31.5 -47t-11.5 -58z" />
    <glyph glyph-name="Scaron" unicode="&#x160;" horiz-adv-x="562" 
d="M228 900l48 -53l54 53h117l-139 -142h-56l-140 142h116zM133 244q0 -32 10 -61t26.5 -50.5t38.5 -34.5t47 -13h51q54 0 88 33.5t34 87.5q0 42 -27 72.5t-69 41.5l-151 40q-23 6 -46 21t-42 37t-30.5 49.5t-11.5 58.5q0 34 14.5 65.5t38.5 56t55.5 39t66.5 14.5h70
q34 0 65.5 -17t55.5 -46.5t38.5 -68t14.5 -81.5h-84q0 26 -7 49.5t-19.5 41t-29 28t-34.5 10.5h-70q-19 0 -36 -7t-29.5 -19.5t-19.5 -29t-7 -35.5q0 -14 6.5 -27t17 -24t23.5 -19t26 -12l148 -41q34 -9 62.5 -28t49.5 -44.5t33 -57t12 -67.5q0 -45 -15.5 -82.5t-42.5 -64.5
t-65 -42.5t-83 -15.5h-51q-41 0 -78 19.5t-65 53t-45 77.5t-17 93h83z" />
    <glyph glyph-name="scaron" unicode="&#x161;" horiz-adv-x="423" 
d="M162 647l45 -49l51 49h112l-135 -134h-52l-133 134h112zM137 175q0 -19 4.5 -36t13 -30t19.5 -20.5t23 -7.5h37q25 0 42 16.5t17 41.5q0 23 -15 39t-34 20l-93 19q-17 3 -34 14t-30 27t-21 36t-8 42q0 28 10.5 50t27.5 37.5t38.5 23.5t44.5 8h46q22 0 43.5 -10t38.5 -30
t27.5 -49t10.5 -66h-81q0 36 -12.5 56t-26.5 20h-46q-16 0 -28.5 -10t-12.5 -30q0 -14 9.5 -25t19.5 -14l92 -18q23 -5 43.5 -16.5t36.5 -29.5t25 -42t9 -52t-11 -53.5t-30 -44.5t-44.5 -30t-53.5 -11h-37q-28 0 -53 14t-44.5 38t-31 55.5t-11.5 67.5h80z" />
    <glyph glyph-name="Ydieresis" unicode="&#x178;" horiz-adv-x="556" 
d="M237 0v341l-187 359h95l135 -254q17 35 40.5 79t43.5 83l48 92h94l-186 -359v-341h-83zM191 839h80v-81h-80v81zM288 839h80v-81h-80v81z" />
    <glyph glyph-name="Zcaron" unicode="&#x17d;" horiz-adv-x="629" 
d="M128 700h451l-377 -616h339v-84h-491l377 616h-299v84zM263 868l48 -53l54 53h115l-140 -142h-53l-141 142h117z" />
    <glyph glyph-name="zcaron" unicode="&#x17e;" horiz-adv-x="568" 
d="M470 0h-420l301 376h-226v79h393l-301 -374h253v-81zM235 615l48 -49l49 49h110l-132 -134h-52l-133 134h110z" />
    <glyph glyph-name="florin" unicode="&#x192;" horiz-adv-x="417" 
d="M50 -58h93q11 0 18.5 6.5t7.5 16.5v592q0 47 29.5 76.5t76.5 29.5h92v-80h-92q-11 0 -18.5 -7.5t-7.5 -18.5v-102h118v-79h-118v-411q0 -46 -29.5 -75.5t-76.5 -29.5h-93v82z" />
    <glyph glyph-name="circumflex" unicode="&#x2c6;" horiz-adv-x="419" 
d="M50 498l133 137h52l134 -137h-112l-48 50l-49 -50h-110z" />
    <glyph glyph-name="caron" unicode="&#x2c7;" horiz-adv-x="419" 
d="M160 600l47 -50l50 50h112l-134 -135h-52l-133 135h110z" />
    <glyph glyph-name="breve" unicode="&#x2d8;" horiz-adv-x="374" 
d="M324 565q0 -30 -8.5 -57t-23.5 -47t-35.5 -31.5t-44.5 -11.5h-50q-24 0 -44.5 11.5t-35.5 31.5t-23.5 47t-8.5 57h81q0 -27 8.5 -47t22.5 -20h50q14 0 22.5 20t8.5 47h81z" />
    <glyph glyph-name="dotaccent" unicode="&#x2d9;" horiz-adv-x="181" 
d="M50 599h81v-79h-81v79z" />
    <glyph glyph-name="ring" unicode="&#x2da;" horiz-adv-x="321" 
d="M50 529q0 48 31 79t79 31t79.5 -31t31.5 -79t-31.5 -79.5t-79.5 -31.5t-79 31.5t-31 79.5zM130 529q0 -13 9 -22t21 -9t21 9t9 22t-9 22t-21 9t-21 -9t-9 -22z" />
    <glyph glyph-name="ogonek" unicode="&#x2db;" horiz-adv-x="316" 
d="M167 68v-99h-37q1 -13 11 -22t24 -9h101v-82h-101q-50 0 -82.5 32.5t-32.5 82.5v61h40v36h77z" />
    <glyph glyph-name="tilde" unicode="&#x2dc;" horiz-adv-x="443" 
d="M393 611q0 -31 -9 -58t-24 -47t-35 -31.5t-42 -11.5q-17 0 -30 3.5t-23.5 10t-20.5 15t-20 19.5q-7 8 -14 14.5t-15 6.5q-13 0 -21.5 -20.5t-8.5 -46.5h-80q0 30 8.5 57t23.5 47t35 31.5t43 11.5q32 0 53.5 -15t36.5 -31q8 -8 16.5 -15.5t16.5 -7.5q12 0 21 20t9 48h80z
" />
    <glyph glyph-name="hungarumlaut" unicode="&#x2dd;" horiz-adv-x="498" 
d="M296 635l-133 -137h-113l134 137h112zM448 635l-132 -137h-112l134 137h110z" />
    <glyph glyph-name="uni0394" unicode="&#x394;" horiz-adv-x="833" 
 />
    <glyph glyph-name="uni0394" unicode="&#x2206;" horiz-adv-x="833" 
 />
    <glyph glyph-name="uni03A9" unicode="&#x3a9;" horiz-adv-x="833" 
 />
    <glyph glyph-name="uni03A9" unicode="&#x2126;" horiz-adv-x="833" 
 />
    <glyph glyph-name="pi" unicode="&#x3c0;" horiz-adv-x="833" 
 />
    <glyph glyph-name="endash" unicode="&#x2013;" horiz-adv-x="489" 
d="M439 225h-389v81h389v-81z" />
    <glyph glyph-name="emdash" unicode="&#x2014;" horiz-adv-x="629" 
d="M579 225h-529v81h529v-81z" />
    <glyph glyph-name="quoteleft" unicode="&#x2018;" horiz-adv-x="232" 
d="M50 629l70 70l62 -62l-44 -44v-105h-88v141z" />
    <glyph glyph-name="quoteright" unicode="&#x2019;" horiz-adv-x="233" 
d="M183 562l-69 -70l-64 60l43 44v105h90v-139z" />
    <glyph glyph-name="quotesinglbase" unicode="&#x201a;" horiz-adv-x="233" 
d="M183 22l-69 -71l-64 62l43 44v104h90v-139z" />
    <glyph glyph-name="quotedblleft" unicode="&#x201c;" horiz-adv-x="410" 
d="M50 631l68 70l64 -62l-43 -44v-105h-89v141zM228 631l70 70l62 -62l-43 -44v-105h-89v141z" />
    <glyph glyph-name="quotedblright" unicode="&#x201d;" horiz-adv-x="406" 
d="M356 562l-70 -70l-62 61l44 44v104h88v-139zM181 562l-70 -70l-61 61l42 43v105h89v-139z" />
    <glyph glyph-name="quotedblbase" unicode="&#x201e;" horiz-adv-x="405" 
d="M355 22l-70 -71l-62 62l44 45v103h88v-139zM180 22l-70 -71l-60 62l41 44v104h89v-139z" />
    <glyph glyph-name="dagger" unicode="&#x2020;" horiz-adv-x="380" 
d="M330 259h-100v-398h-81v398h-99v81h99v259h81v-259h100v-81z" />
    <glyph glyph-name="daggerdbl" unicode="&#x2021;" horiz-adv-x="522" 
d="M472 352h-172v-34h172v-81h-172v-376h-80v376h-170v81h170v34h-170v79h170v168h80v-168h172v-79z" />
    <glyph glyph-name="bullet" unicode="&#x2022;" horiz-adv-x="354" 
d="M50 303q0 25 10 48t27.5 40.5t40.5 27.5t50 10q25 0 48 -10t40 -27.5t27.5 -40.5t10.5 -48q0 -26 -10.5 -49t-27.5 -40.5t-40 -28t-48 -10.5q-27 0 -50 10.5t-40.5 28t-27.5 40.5t-10 49z" />
    <glyph glyph-name="ellipsis" unicode="&#x2026;" horiz-adv-x="471" 
d="M140 161v-161h-90v161h90zM281 161v-161h-91v161h91zM421 161v-161h-88v161h88z" />
    <glyph glyph-name="perthousand" unicode="&#x2030;" horiz-adv-x="1217" 
d="M823 173q0 36 13 67t36.5 54.5t54.5 36.5t67 13t68 -13t55 -36.5t36.5 -54.5t13.5 -67t-13.5 -68t-36.5 -55t-55 -36.5t-68 -13.5t-67 13.5t-54.5 36.5t-36.5 55t-13 68zM903 173q0 -19 7 -36t19.5 -29.5t29 -19.5t35.5 -7t36 7t29.5 19.5t20 29.5t7.5 36q0 18 -7.5 34.5
t-20 29t-29.5 20t-36 7.5t-35.5 -7.5t-29 -20t-19.5 -29t-7 -34.5zM233 0l289 663h87l-290 -663h-86zM50 491q0 36 13.5 67.5t36.5 55t55 36.5t68 13t67.5 -13t55 -36.5t36.5 -55t13 -67.5t-13 -67.5t-36.5 -55t-55 -36.5t-67.5 -13t-68 13t-55 36.5t-36.5 55t-13.5 67.5z
M132 491q0 -38 26.5 -64.5t64.5 -26.5t64.5 26.5t26.5 64.5q0 19 -7 36t-19.5 29.5t-29 19.5t-35.5 7t-35.5 -7t-29 -19.5t-19.5 -29.5t-7 -36zM446 173q0 36 13.5 67t36.5 54.5t54.5 36.5t67.5 13t68 -13t55 -36.5t36.5 -54.5t13.5 -67t-13.5 -68t-36.5 -55t-55 -36.5
t-68 -13.5t-67.5 13.5t-54.5 36.5t-36.5 55t-13.5 68zM526 173q0 -19 7.5 -36t20 -29.5t29 -19.5t35.5 -7t35.5 7t29 19.5t19.5 29.5t7 36q0 18 -7 34.5t-19.5 29t-29 20t-35.5 7.5t-35.5 -7.5t-29 -20t-20 -29t-7.5 -34.5z" />
    <glyph glyph-name="guilsinglleft" unicode="&#x2039;" horiz-adv-x="427" 
d="M263 0l-213 209l216 213h102l-204 -211q10 -10 25 -24.5t32 -31.5l35 -35l35 -35q40 -40 86 -85h-114z" />
    <glyph glyph-name="guilsinglright" unicode="&#x203a;" horiz-adv-x="417" 
d="M52 0q44 48 84 89l34 36t32.5 34t28.5 29.5t22 21.5l-203 212h101l216 -213l-213 -209h-102z" />
    <glyph glyph-name="fraction" unicode="&#x2044;" horiz-adv-x="479" 
d="M50 0l296 662h83l-294 -662h-85z" />
    <glyph glyph-name="Euro" unicode="&#x20ac;" horiz-adv-x="571" 
d="M471 352h-298v-34h298v-81h-297q3 -33 17.5 -61.5t36.5 -49.5t50.5 -33t61.5 -12q35 0 81.5 31.5t99.5 86.5v-117q-40 -38 -85 -60t-96 -22q-49 0 -93 17t-78 48.5t-54.5 75t-22.5 96.5h-42v81h42v34h-42v79h43q4 51 25 93.5t54.5 73.5t76.5 48t91 17q51 0 96 -21.5
t85 -60.5v-117q-53 55 -99.5 87t-81.5 32q-30 0 -57.5 -12t-49.5 -32.5t-36.5 -48t-20.5 -59.5h295v-79z" />
    <glyph glyph-name="trademark" unicode="&#x2122;" horiz-adv-x="720" 
d="M495 273l-79 168v-168h-80v390h66l101 -214q6 13 12.5 27.5t18 38t28 59t42.5 89.5h66v-390h-82v170l-77 -170h-16zM143 273v310h-93v80h260v-80h-88v-310h-79z" />
    <glyph glyph-name="partialdiff" unicode="&#x2202;" horiz-adv-x="833" 
 />
    <glyph glyph-name="product" unicode="&#x220f;" horiz-adv-x="833" 
 />
    <glyph glyph-name="summation" unicode="&#x2211;" horiz-adv-x="833" 
 />
    <glyph glyph-name="minus" unicode="&#x2212;" horiz-adv-x="522" 
d="M472 259h-422v81h422v-81z" />
    <glyph glyph-name="radical" unicode="&#x221a;" horiz-adv-x="833" 
 />
    <glyph glyph-name="infinity" unicode="&#x221e;" horiz-adv-x="833" 
 />
    <glyph glyph-name="integral" unicode="&#x222b;" horiz-adv-x="833" 
 />
    <glyph glyph-name="approxequal" unicode="&#x2248;" horiz-adv-x="616" 
 />
    <glyph glyph-name="notequal" unicode="&#x2260;" horiz-adv-x="516" 
 />
    <glyph glyph-name="lessequal" unicode="&#x2264;" horiz-adv-x="300" 
 />
    <glyph glyph-name="greaterequal" unicode="&#x2265;" horiz-adv-x="300" 
 />
    <glyph glyph-name="lozenge" unicode="&#x25ca;" horiz-adv-x="833" 
 />
    <glyph glyph-name="uniFB01" unicode="&#xfb01;" horiz-adv-x="396" 
d="M249 583h-93q-10 0 -17.5 -7.5t-7.5 -18.5v-102h118v-79h-118v-376h-81v557q0 47 29.5 76.5t76.5 29.5h93v-80zM262 0v449h79v-449h-79zM346 579v-113h-89v113h89z" />
    <glyph glyph-name="uniFB02" unicode="&#xfb02;" horiz-adv-x="391" 
d="M249 583h-93q-10 0 -17.5 -7.5t-7.5 -18.5v-102h118v-79h-118v-376h-81v557q0 47 29.5 76.5t76.5 29.5h93v-80zM261 0v663h80v-663h-80z" />
    </font>
</defs>
</svg>
